<?xml version="1.0" standalone="no"?>
<!DOCTYPE svg PUBLIC "-//W3C//DTD SVG 20010904//EN"
 "http://www.w3.org/TR/2001/REC-SVG-20010904/DTD/svg10.dtd">
<svg version="1.0" xmlns="http://www.w3.org/2000/svg"
 width="1024.000000pt" height="1024.000000pt" viewBox="0 0 1024.000000 1024.000000"
 preserveAspectRatio="xMidYMid meet">

<g transform="translate(0.000000,1024.000000) scale(0.100000,-0.100000)"
fill="#000000" stroke="none">
<path d="M4587 7878 c-50 -53 -116 -166 -138 -238 -14 -47 -36 -201 -31 -223
5 -26 16 -19 60 40 36 49 40 52 54 35 18 -21 30 -89 17 -97 -5 -4 -9 -14 -9
-24 0 -10 -11 -35 -25 -55 -34 -49 -32 -72 8 -96 74 -45 189 -9 276 86 56 61
116 163 129 220 6 21 13 48 17 59 l8 20 -16 -20 c-9 -11 -17 -25 -17 -31 0
-20 -36 -85 -43 -78 -4 4 -7 -3 -7 -15 0 -12 -7 -24 -15 -27 -8 -4 -15 -11
-15 -18 0 -6 -19 -29 -42 -51 -24 -22 -43 -43 -44 -45 -3 -22 -27 -48 -38 -44
-8 3 -24 1 -35 -5 -16 -9 -19 -9 -15 2 3 8 16 20 29 27 14 7 34 27 46 45 12
17 35 37 50 44 24 10 27 16 19 31 -14 26 -12 34 4 21 12 -10 17 -8 27 11 6 13
20 33 31 45 11 12 21 35 22 52 1 16 5 33 9 37 17 18 4 23 -23 9 -37 -19 -51
-19 -98 2 -71 30 -101 124 -64 198 8 16 15 42 14 57 0 22 4 27 26 30 26 3 26
3 -11 21 -21 10 -54 21 -73 24 -33 5 -39 2 -87 -49z m93 -98 c0 -5 -2 -10 -4
-10 -3 0 -8 5 -11 10 -3 6 -1 10 4 10 6 0 11 -4 11 -10z m-60 -15 c-14 -17
-30 -20 -30 -6 0 5 8 12 18 14 9 3 19 5 21 6 2 0 -2 -6 -9 -14z m-5 -65 c-10
-11 -23 -20 -29 -20 -6 0 0 9 14 20 32 25 38 25 15 0z m-45 -24 c0 -7 -9 -16
-20 -19 -17 -4 -18 -2 -9 14 11 22 29 25 29 5z m60 0 c0 -2 -7 -7 -16 -10 -8
-3 -12 -2 -9 4 6 10 25 14 25 6z m-1 -30 c-14 -13 -113 -55 -118 -50 -3 4 -1
8 4 11 6 2 33 14 60 27 43 20 69 26 54 12z m61 -9 c0 -10 -50 -56 -85 -79 -40
-26 -95 -30 -95 -6 0 6 11 8 25 6 13 -3 22 -1 19 4 -3 5 2 16 12 23 28 21 40
18 19 -5 -10 -11 -15 -20 -11 -20 11 0 41 32 41 43 0 6 10 11 23 12 12 1 28 7
34 13 12 12 18 15 18 9z m84 -72 c-6 -15 -44 -41 -44 -30 0 8 34 43 42 44 4 1
5 -6 2 -14z m-109 -5 c-3 -5 -11 -10 -16 -10 -6 0 -7 5 -4 10 3 6 11 10 16 10
6 0 7 -4 4 -10z m5 -40 c0 -5 -5 -10 -11 -10 -5 0 -7 5 -4 10 3 6 8 10 11 10
2 0 4 -4 4 -10z m95 -9 c-3 -6 -11 -11 -17 -11 -6 0 -6 6 2 15 14 17 26 13 15
-4z m63 10 c16 -10 12 -53 -4 -58 -7 -2 -10 5 -7 20 3 14 0 28 -6 31 -6 4 -11
4 -11 -1 -1 -13 -40 -59 -40 -47 0 13 38 64 48 64 4 0 13 -4 20 -9z m-223 -11
c-3 -5 -11 -10 -16 -10 -6 0 -7 5 -4 10 3 6 11 10 16 10 6 0 7 -4 4 -10z m135
-50 c0 -5 -10 -15 -22 -21 -23 -12 -23 -12 -4 10 21 23 26 26 26 11z m-50 -25
c0 -9 -44 -55 -53 -55 -10 0 34 59 46 59 4 1 7 -1 7 -4z m97 -25 c1 -11 -3
-20 -8 -20 -6 0 -7 5 -4 10 3 6 1 10 -5 10 -6 0 -8 5 -5 10 10 16 21 11 22
-10z m-29 -16 c-4 -3 -13 -6 -20 -8 -13 -1 -71 -44 -141 -102 -10 -8 -26 -13
-35 -11 -15 3 -14 5 3 12 33 13 47 27 35 35 -7 4 -3 13 10 25 11 10 20 13 20
7 0 -7 -4 -12 -10 -12 -5 0 -10 -5 -10 -12 0 -7 7 -5 18 5 40 37 89 65 111 66
13 1 22 -2 19 -5z m-28 -44 c0 -5 -4 -10 -10 -10 -5 0 -10 5 -10 10 0 6 5 10
10 10 6 0 10 -4 10 -10z m-90 -65 c-7 -8 -20 -15 -29 -15 -11 1 -8 5 9 15 32
18 35 18 20 0z m5 -35 c3 -5 -1 -10 -10 -10 -9 0 -13 5 -10 10 3 6 8 10 10 10
2 0 7 -4 10 -10z m-44 -19 c-8 -5 -20 -7 -28 -4 -21 8 -15 13 15 13 20 0 23
-3 13 -9z"/>
<path d="M5857 7908 l-26 -21 49 -23 c38 -17 51 -29 55 -51 4 -15 9 -35 12
-43 2 -8 8 -36 12 -62 7 -45 6 -49 -26 -80 -29 -28 -41 -33 -79 -31 -53 2
-105 36 -124 82 -7 17 -16 31 -21 31 -5 0 -9 9 -9 19 0 11 -5 23 -11 27 -8 4
-8 9 0 17 15 15 14 32 -1 19 -7 -5 -28 -9 -46 -7 -18 1 -35 -1 -38 -6 -3 -5 2
-9 10 -9 19 0 21 -11 5 -27 -8 -8 -7 -31 5 -85 23 -100 54 -169 99 -217 20
-22 37 -44 37 -49 0 -13 95 -84 146 -110 41 -21 137 -36 149 -24 4 4 10 7 13
7 35 2 74 58 47 68 -11 5 -12 95 -4 247 1 14 -16 66 -38 117 -42 95 -108 184
-161 215 -28 17 -30 16 -55 -4z m-147 -259 c0 -6 -4 -7 -10 -4 -5 3 -10 11
-10 16 0 6 5 7 10 4 6 -3 10 -11 10 -16z m365 11 c3 -5 1 -10 -4 -10 -6 0 -11
5 -11 10 0 6 2 10 4 10 3 0 8 -4 11 -10z m-380 -42 c6 -20 8 -20 12 -5 5 20
23 23 23 3 0 -23 -29 -27 -50 -6 -24 24 -25 30 -6 30 7 0 17 -10 21 -22z m385
12 c0 -5 -5 -10 -11 -10 -5 0 -7 5 -4 10 3 6 8 10 11 10 2 0 4 -4 4 -10z
m-330 -50 c0 -5 -2 -10 -4 -10 -3 0 -8 5 -11 10 -3 6 -1 10 4 10 6 0 11 -4 11
-10z m331 -18 c12 -31 -5 -28 -20 4 -9 20 -9 25 0 22 7 -2 16 -14 20 -26z
m-284 -39 c-9 -8 -37 10 -37 24 0 8 5 11 10 8 6 -3 10 0 11 7 0 7 5 2 10 -11
5 -13 8 -26 6 -28z m-71 -10 c-4 -4 -14 1 -22 11 -22 31 -17 43 8 19 12 -13
18 -26 14 -30z m332 12 c6 -14 16 -25 22 -25 6 0 10 -12 8 -27 -3 -27 -8 -29
-48 -24 -5 0 -10 6 -10 12 0 8 5 8 15 -1 20 -17 20 5 0 54 -17 40 -5 50 13 11z
m-147 -19 c4 -16 16 -37 25 -47 9 -10 13 -19 9 -19 -5 0 2 -11 15 -25 14 -15
30 -23 40 -20 11 5 12 3 4 -5 -17 -17 -50 3 -69 40 -8 16 -23 31 -33 34 -21 7
-71 56 -57 56 5 0 20 -10 33 -22 26 -24 26 -23 5 28 -4 11 -2 15 7 12 8 -2 17
-17 21 -32z m113 8 c3 -8 2 -12 -4 -9 -6 3 -10 10 -10 16 0 14 7 11 14 -7z
m-174 -100 c0 -3 -6 -2 -12 1 -7 4 -2 -3 12 -15 29 -26 140 -83 147 -77 2 3
-6 15 -19 27 l-23 22 25 -7 c14 -4 29 -14 33 -21 4 -8 13 -14 19 -14 7 0 6 6
-2 15 -11 13 -10 15 6 9 18 -5 18 -5 2 9 -20 16 -23 27 -8 27 19 0 31 -39 19
-61 -9 -17 -18 -20 -52 -16 -23 2 -52 7 -64 10 -34 9 -133 86 -133 103 0 8 -7
22 -15 30 -8 9 -15 22 -15 30 0 8 17 -3 40 -26 22 -22 40 -43 40 -46z m-14 38
c-9 -8 -26 10 -26 26 1 15 2 15 15 -2 8 -11 13 -21 11 -24z m178 6 c7 -5 4 -8
-6 -8 -12 0 -18 7 -17 23 0 15 2 17 6 7 3 -8 11 -18 17 -22z m-104 -40 c22
-24 25 -34 10 -43 -5 -3 -10 1 -10 9 0 8 -9 18 -20 21 -11 3 -20 13 -20 21 0
20 16 17 40 -8z m156 3 c11 9 14 8 14 -4 0 -8 -6 -17 -13 -20 -14 -5 -39 18
-29 28 4 3 8 1 10 -5 3 -8 8 -8 18 1z m-116 -51 c0 -5 -4 -10 -10 -10 -5 0
-10 5 -10 10 0 6 5 10 10 10 6 0 10 -4 10 -10z"/>
<path d="M5940 7924 c0 -2 15 -11 33 -20 27 -14 30 -15 19 -2 -11 14 -52 31
-52 22z"/>
<path d="M4720 7299 c0 -5 5 -7 10 -4 6 3 10 8 10 11 0 2 -4 4 -10 4 -5 0 -10
-5 -10 -11z"/>
</g>
</svg>
