<?xml version="1.0" encoding="UTF-8"?>
<svg version="1.1" xmlns="http://www.w3.org/2000/svg" width="236" height="209">
<path d="M0 0 C19.6525483 14.07030695 33.8245895 33.30384231 37.98828125 57.44458008 C41.02328524 79.47510983 40.76597751 104.75522168 30.76171875 124.90625 C30.31957031 125.82792969 29.87742188 126.74960938 29.421875 127.69921875 C25.76479397 134.88168536 21.0926109 140.88658772 15.76171875 146.90625 C15.20871094 147.54304687 14.65570313 148.17984375 14.0859375 148.8359375 C-0.29094817 164.31873746 -23.68296892 175.01599225 -44.79272461 176.02880859 C-73.0835428 176.82805267 -97.53847527 170.95186483 -119.23828125 151.90625 C-119.98722656 151.25269531 -120.73617187 150.59914062 -121.5078125 149.92578125 C-137.06769043 135.40141184 -146.4037527 114.90221584 -147.52416992 93.67431641 C-147.64900942 90.01538517 -147.66068569 86.36061566 -147.62939453 82.69995117 C-147.61331317 80.4731706 -147.62934918 78.2482106 -147.6484375 76.02148438 C-147.68795 51.16761076 -139.98956397 29.68875924 -122.76171875 11.34375 C-89.98325347 -20.3184208 -37.9951404 -24.56621864 0 0 Z M-106.23828125 7.90625 C-107.16253906 8.58558594 -108.08679688 9.26492187 -109.0390625 9.96484375 C-125.58364721 22.80234309 -136.59042172 41.04432644 -139.23828125 61.90625 C-140.52798131 83.34487066 -135.5244558 103.19887827 -121.21484375 119.74609375 C-120.56257813 120.45894531 -119.9103125 121.17179688 -119.23828125 121.90625 C-118.64789063 122.58816406 -118.0575 123.27007812 -117.44921875 123.97265625 C-103.49039014 139.14916991 -81.49386958 148.34756437 -61.1796875 149.21875 C-33.26954122 149.9576985 -10.8733417 142.69115197 9.63671875 123.40625 C24.35658916 107.77998363 31.16488756 88.10076935 30.9765625 66.8828125 C29.87413499 46.47788156 19.83340415 26.66974773 4.66796875 13.046875 C-25.89087504 -12.9728189 -73.56624141 -16.16528314 -106.23828125 7.90625 Z M25.76171875 112.90625 C26.76171875 114.90625 26.76171875 114.90625 26.76171875 114.90625 Z M-134.23828125 114.90625 C-133.66375379 118.83700644 -133.66375379 118.83700644 -131.23828125 121.90625 C-131.81280871 117.97549356 -131.81280871 117.97549356 -134.23828125 114.90625 Z M24.76171875 114.90625 C25.76171875 116.90625 25.76171875 116.90625 25.76171875 116.90625 Z M23.76171875 116.90625 C23.43171875 118.55625 23.10171875 120.20625 22.76171875 121.90625 C23.42171875 121.24625 24.08171875 120.58625 24.76171875 119.90625 C24.43171875 118.91625 24.10171875 117.92625 23.76171875 116.90625 Z M-123.23828125 128.90625 C-123.8079133 132.81229833 -123.97351024 134.82225854 -121.71484375 138.15234375 C-119.95705752 140.16482962 -118.20166972 142.09352923 -116.23828125 143.90625 C-115.90828125 143.90625 -115.57828125 143.90625 -115.23828125 143.90625 C-114.7371247 140.77402159 -114.55007723 138.01834905 -115.23828125 134.90625 C-117.59060429 132.35274143 -120.23196386 130.61743512 -123.23828125 128.90625 Z M8.28515625 132.97265625 C5.94214591 135.94647707 6.22029443 138.49598189 6.515625 142.1484375 C6.59683594 142.72851562 6.67804688 143.30859375 6.76171875 143.90625 C7.71046875 143.143125 8.65921875 142.38 9.63671875 141.59375 C10.17039063 141.16449219 10.7040625 140.73523438 11.25390625 140.29296875 C13.01463982 138.78354455 13.01463982 138.78354455 14.76171875 135.90625 C14.84076939 133.57425612 14.84970644 131.23792378 14.76171875 128.90625 C12.30158525 128.90625 10.05252257 131.46859144 8.28515625 132.97265625 Z M-107.23828125 141.90625 C-107.5886882 145.30649521 -107.76909225 148.51967582 -107.23828125 151.90625 C-103.74975546 155.11566952 -103.74975546 155.11566952 -99.23828125 155.90625 C-99.23828125 152.60625 -99.23828125 149.30625 -99.23828125 145.90625 C-101.87828125 144.58625 -104.51828125 143.26625 -107.23828125 141.90625 Z M-5.80078125 143.90625 C-6.93515625 144.56625 -8.06953125 145.22625 -9.23828125 145.90625 C-9.23828125 149.20625 -9.23828125 152.50625 -9.23828125 155.90625 C-6.26634275 154.78173273 -3.90387438 153.68331209 -1.23828125 151.90625 C-0.87412078 149.46931689 -0.87412078 149.46931689 -1.05078125 146.78125 C-1.09138672 145.41613281 -1.09138672 145.41613281 -1.1328125 144.0234375 C-1.18501953 142.97542969 -1.18501953 142.97542969 -1.23828125 141.90625 C-2.98034433 141.90625 -4.32423217 143.0471669 -5.80078125 143.90625 Z M-91.23828125 149.90625 C-91.23828125 153.53625 -91.23828125 157.16625 -91.23828125 160.90625 C-87.60828125 162.22625 -83.97828125 163.54625 -80.23828125 164.90625 C-80.23828125 161.27625 -80.23828125 157.64625 -80.23828125 153.90625 C-81.86765625 153.24625 -83.49703125 152.58625 -85.17578125 151.90625 C-86.09230469 151.535 -87.00882813 151.16375 -87.953125 150.78125 C-89.98610283 149.846652 -89.98610283 149.846652 -91.23828125 149.90625 Z M-23.30078125 151.90625 C-24.93015625 152.56625 -26.55953125 153.22625 -28.23828125 153.90625 C-28.23828125 157.53625 -28.23828125 161.16625 -28.23828125 164.90625 C-24.60828125 163.58625 -20.97828125 162.26625 -17.23828125 160.90625 C-17.23828125 157.27625 -17.23828125 153.64625 -17.23828125 149.90625 C-19.31711294 149.90625 -21.4111382 151.14082497 -23.30078125 151.90625 Z M-72.23828125 155.90625 C-72.23828125 159.53625 -72.23828125 163.16625 -72.23828125 166.90625 C-67.27443721 167.89901881 -63.26015937 167.9812034 -58.23828125 167.90625 C-58.23828125 164.27625 -58.23828125 160.64625 -58.23828125 156.90625 C-65.16828125 156.41125 -65.16828125 156.41125 -72.23828125 155.90625 Z M-50.23828125 156.90625 C-50.23828125 160.53625 -50.23828125 164.16625 -50.23828125 167.90625 C-45.21640313 167.9812034 -41.20212529 167.89901881 -36.23828125 166.90625 C-36.23828125 163.27625 -36.23828125 159.64625 -36.23828125 155.90625 C-41.01853608 155.78674363 -45.51444162 156.25468591 -50.23828125 156.90625 Z " fill="#FFFFFF" transform="translate(169.23828125,15.09375)"/>
<path d="M0 0 C2.5063137 2.29145345 4.91538566 4.66599346 7.32202148 7.06225586 C8.32749023 8.01551758 8.32749023 8.01551758 9.35327148 8.98803711 C20.12660829 20.03070734 25.05694797 36.03379183 25.69702148 51.12475586 C24.96776869 70.24386166 16.74380839 86.20404726 3.13452148 99.31225586 C-14.49204803 114.56413476 -35.7574695 119.56389987 -58.67797852 118.06225586 C-78.42221296 115.79218576 -95.68080824 105.67702447 -108.57641602 90.75366211 C-119.17379466 77.18192626 -123.96329448 61.20583637 -122.67797852 44.06225586 C-119.82112655 25.35568208 -110.72614789 9.93405069 -95.92797852 -1.81274414 C-68.08714491 -21.43115538 -26.54516392 -23.36286094 0 0 Z M-100.05688477 12.50756836 C-111.16645351 25.61981079 -116.0534851 40.99435025 -114.67797852 58.06225586 C-112.46098067 73.90080804 -103.49030787 86.77035379 -91.36547852 96.81225586 C-75.13752898 108.72396321 -56.09310238 112.43000459 -36.37231445 109.7487793 C-18.93482293 106.68172613 -3.12377655 97.51733322 7.32202148 83.06225586 C15.7216867 68.97847985 19.77702892 54.34419458 16.19702148 37.99975586 C11.28402454 20.71328512 0.77446597 8.24321991 -14.65844727 -0.65649414 C-42.95933436 -15.59409044 -77.72115905 -10.45165052 -100.05688477 12.50756836 Z " fill="#FFFFFF" transform="translate(163.677978515625,34.937744140625)"/>
<path d="M0 0 C10.27681164 8.87004348 17.09810437 20.29590556 19.25 33.8125 C19.28824623 36.14551986 19.29574284 38.47961508 19.25 40.8125 C16.61 40.8125 13.97 40.8125 11.25 40.8125 C11.10304688 39.85730469 10.95609375 38.90210938 10.8046875 37.91796875 C8.6339282 25.40491371 4.35717686 13.76028863 -6.2578125 5.97265625 C-21.41184526 -4.01043218 -36.24277761 -7.27159031 -54.23046875 -4.6875 C-68.10851086 -1.52768705 -80.49264055 6.03777149 -88.27734375 18.12890625 C-94.24357161 29.00105092 -95.79191764 41.04520037 -92.625 53.125 C-87.63892182 67.15125731 -78.42265355 75.60424507 -65.30859375 82.00390625 C-50.8253591 88.30399708 -34.93327006 88.25831009 -20.203125 82.84765625 C-17.76389642 81.85679665 -17.76389642 81.85679665 -15.5546875 80.671875 C-13.75 79.8125 -13.75 79.8125 -11.625 80 C-9.75 80.8125 -9.75 80.8125 -7.75 83.8125 C-7.75 84.8025 -7.75 85.7925 -7.75 86.8125 C-9.8916251 87.78125787 -12.03760874 88.73739389 -14.1875 89.6875 C-15.38246094 90.22117187 -16.57742187 90.75484375 -17.80859375 91.3046875 C-33.3959701 97.62133413 -52.7929127 96.62550188 -68.15625 90.44140625 C-82.52947086 83.92658767 -94.46513643 72.99261732 -100.125 58 C-104.81814984 44.18581547 -103.80349243 30.20355692 -97.4296875 17.09765625 C-88.70812392 1.63237001 -75.74144382 -7.15567261 -59.125 -12.3125 C-38.32481766 -17.70513987 -16.98249314 -13.04553657 0 0 Z " fill="#FFFFFF" transform="translate(156.75,45.1875)"/>
<path d="M0 0 C1.98 0.66 3.96 1.32 6 2 C6 6.54615938 5.39578938 7.24350602 2.625 10.625 C1.99851563 11.40101562 1.37203125 12.17703125 0.7265625 12.9765625 C-1 15 -1 15 -3 17 C-5.93453261 16.63318342 -6.86437246 16.13562754 -9 14 C-8.73644603 10.08919911 -6.3600688 7.67246395 -3.9375 4.75 C-3.20402344 3.85796875 -2.47054687 2.9659375 -1.71484375 2.046875 C-1.14894531 1.37140625 -0.58304688 0.6959375 0 0 Z " fill="#FFFFFF" transform="translate(163,106)"/>
</svg>
