<?xml version="1.0" encoding="UTF-8"?>
<svg version="1.1" xmlns="http://www.w3.org/2000/svg" width="2048" height="1280">
<path d="M0 0 C44.22 0 88.44 0 134 0 C134 62.04 134 124.08 134 188 C89.78 188 45.56 188 0 188 C0 125.96 0 63.92 0 0 Z M6 6 C6 64.08 6 122.16 6 182 C46.26 182 86.52 182 128 182 C128 123.92 128 65.84 128 6 C87.74 6 47.48 6 6 6 Z " fill="#FFFFFF" transform="translate(1533,924)"/>
<path d="M0 0 C44.22 0 88.44 0 134 0 C134 62.04 134 124.08 134 188 C89.78 188 45.56 188 0 188 C0 125.96 0 63.92 0 0 Z M6 6 C6 64.08 6 122.16 6 182 C46.26 182 86.52 182 128 182 C128 123.92 128 65.84 128 6 C87.74 6 47.48 6 6 6 Z " fill="#FFFFFF" transform="translate(411,924)"/>
<path d="M0 0 C44.22 0 88.44 0 134 0 C134 62.04 134 124.08 134 188 C89.78 188 45.56 188 0 188 C0 125.96 0 63.92 0 0 Z M6 6 C6 64.08 6 122.16 6 182 C46.26 182 86.52 182 128 182 C128 123.92 128 65.84 128 6 C87.74 6 47.48 6 6 6 Z " fill="#FFFFFF" transform="translate(1533,54)"/>
<path d="M0 0 C44.22 0 88.44 0 134 0 C134 62.04 134 124.08 134 188 C89.78 188 45.56 188 0 188 C0 125.96 0 63.92 0 0 Z M6 6 C6 64.08 6 122.16 6 182 C46.26 182 86.52 182 128 182 C128 123.92 128 65.84 128 6 C87.74 6 47.48 6 6 6 Z " fill="#FFFFFF" transform="translate(411,54)"/>
<path d="M0 0 C39.6 0 79.2 0 120 0 C120 57.42 120 114.84 120 174 C80.4 174 40.8 174 0 174 C0 116.58 0 59.16 0 0 Z M1 1 C1 57.76 1 114.52 1 173 C39.94 173 78.88 173 119 173 C119 116.24 119 59.48 119 1 C80.06 1 41.12 1 1 1 Z " fill="#FFFFFF" transform="translate(1540,931)"/>
<path d="M0 0 C39.6 0 79.2 0 120 0 C120 57.42 120 114.84 120 174 C80.4 174 40.8 174 0 174 C0 116.58 0 59.16 0 0 Z M1 1 C1 57.76 1 114.52 1 173 C39.94 173 78.88 173 119 173 C119 116.24 119 59.48 119 1 C80.06 1 41.12 1 1 1 Z " fill="#FFFFFF" transform="translate(418,931)"/>
<path d="M0 0 C39.6 0 79.2 0 120 0 C120 57.42 120 114.84 120 174 C80.4 174 40.8 174 0 174 C0 116.58 0 59.16 0 0 Z M1 1 C1 57.76 1 114.52 1 173 C39.94 173 78.88 173 119 173 C119 116.24 119 59.48 119 1 C80.06 1 41.12 1 1 1 Z " fill="#FFFFFF" transform="translate(1540,61)"/>
<path d="M0 0 C39.6 0 79.2 0 120 0 C120 57.42 120 114.84 120 174 C80.4 174 40.8 174 0 174 C0 116.58 0 59.16 0 0 Z M1 1 C1 57.76 1 114.52 1 173 C39.94 173 78.88 173 119 173 C119 116.24 119 59.48 119 1 C80.06 1 41.12 1 1 1 Z " fill="#FFFFFF" transform="translate(418,61)"/>
<path d="M0 0 C0.33 0 0.66 0 1 0 C1 62.04 1 124.08 1 188 C0.67 188 0.34 188 0 188 C0 125.96 0 63.92 0 0 Z " fill="#FFFFFF" transform="translate(1531,924)"/>
<path d="M0 0 C0.33 0 0.66 0 1 0 C1 62.04 1 124.08 1 188 C0.67 188 0.34 188 0 188 C0 125.96 0 63.92 0 0 Z " fill="#FFFFFF" transform="translate(409,924)"/>
<path d="M0 0 C0.33 0 0.66 0 1 0 C1 62.04 1 124.08 1 188 C0.67 188 0.34 188 0 188 C0 125.96 0 63.92 0 0 Z " fill="#FFFFFF" transform="translate(1531,54)"/>
<path d="M0 0 C0.33 0 0.66 0 1 0 C1 62.04 1 124.08 1 188 C0.67 188 0.34 188 0 188 C0 125.96 0 63.92 0 0 Z " fill="#FFFFFF" transform="translate(409,54)"/>
<path d="M0 0 C0.33 0.99 0.66 1.98 1 3 C-42.89 3 -86.78 3 -132 3 C-132 2.67 -132 2.34 -132 2 C-88.44 2 -44.88 2 0 2 C0 1.34 0 0.68 0 0 Z " fill="#FFFFFF" transform="translate(1665,920)"/>
<path d="M0 0 C0.33 0.99 0.66 1.98 1 3 C-42.89 3 -86.78 3 -132 3 C-132 2.67 -132 2.34 -132 2 C-88.44 2 -44.88 2 0 2 C0 1.34 0 0.68 0 0 Z " fill="#FFFFFF" transform="translate(543,920)"/>
<path d="M0 0 C0.33 0.99 0.66 1.98 1 3 C-42.89 3 -86.78 3 -132 3 C-132 2.67 -132 2.34 -132 2 C-88.44 2 -44.88 2 0 2 C0 1.34 0 0.68 0 0 Z " fill="#FFFFFF" transform="translate(1665,50)"/>
<path d="M0 0 C0.33 0.99 0.66 1.98 1 3 C-42.89 3 -86.78 3 -132 3 C-132 2.67 -132 2.34 -132 2 C-88.44 2 -44.88 2 0 2 C0 1.34 0 0.68 0 0 Z " fill="#FFFFFF" transform="translate(543,50)"/>
<path d="M0 0 C44.22 0 88.44 0 134 0 C134 0.33 134 0.66 134 1 C89.78 1 45.56 1 0 1 C0 0.67 0 0.34 0 0 Z " fill="#FFFFFF" transform="translate(1533,1113)"/>
<path d="M0 0 C44.22 0 88.44 0 134 0 C134 0.33 134 0.66 134 1 C89.78 1 45.56 1 0 1 C0 0.67 0 0.34 0 0 Z " fill="#FFFFFF" transform="translate(411,1113)"/>
<path d="M0 0 C44.22 0 88.44 0 134 0 C134 0.33 134 0.66 134 1 C89.78 1 45.56 1 0 1 C0 0.67 0 0.34 0 0 Z " fill="#FFFFFF" transform="translate(1533,243)"/>
<path d="M0 0 C44.22 0 88.44 0 134 0 C134 0.33 134 0.66 134 1 C89.78 1 45.56 1 0 1 C0 0.67 0 0.34 0 0 Z " fill="#FFFFFF" transform="translate(411,243)"/>
<path d="" fill="#FFFFFF" transform="translate(0,0)"/>
<path d="" fill="#FFFFFF" transform="translate(0,0)"/>
<path d="" fill="#FFFFFF" transform="translate(0,0)"/>
<path d="" fill="#FFFFFF" transform="translate(0,0)"/>
<path d="" fill="#FFFFFF" transform="translate(0,0)"/>
<path d="" fill="#FFFFFF" transform="translate(0,0)"/>
<path d="" fill="#FFFFFF" transform="translate(0,0)"/>
<path d="" fill="#FFFFFF" transform="translate(0,0)"/>
</svg>
