<?xml version="1.0" encoding="UTF-8"?>
<svg version="1.1" xmlns="http://www.w3.org/2000/svg" width="2048" height="1280">
<path d="M0 0 C43.56 0 87.12 0 132 0 C132 61.38 132 122.76 132 186 C88.44 186 44.88 186 0 186 C0 124.62 0 63.24 0 0 Z M4 4 C4 62.74 4 121.48 4 182 C44.92 182 85.84 182 128 182 C128 123.26 128 64.52 128 4 C87.08 4 46.16 4 4 4 Z " fill="#FFFFFF" transform="translate(1534,925)"/>
<path d="M0 0 C43.56 0 87.12 0 132 0 C132 61.38 132 122.76 132 186 C88.44 186 44.88 186 0 186 C0 124.62 0 63.24 0 0 Z M4 4 C4 62.74 4 121.48 4 182 C44.92 182 85.84 182 128 182 C128 123.26 128 64.52 128 4 C87.08 4 46.16 4 4 4 Z " fill="#FFFFFF" transform="translate(412,925)"/>
<path d="M0 0 C43.56 0 87.12 0 132 0 C132 61.38 132 122.76 132 186 C88.44 186 44.88 186 0 186 C0 124.62 0 63.24 0 0 Z M4 4 C4 62.74 4 121.48 4 182 C44.92 182 85.84 182 128 182 C128 123.26 128 64.52 128 4 C87.08 4 46.16 4 4 4 Z " fill="#FFFFFF" transform="translate(1534,55)"/>
<path d="M0 0 C43.56 0 87.12 0 132 0 C132 61.38 132 122.76 132 186 C88.44 186 44.88 186 0 186 C0 124.62 0 63.24 0 0 Z M4 4 C4 62.74 4 121.48 4 182 C44.92 182 85.84 182 128 182 C128 123.26 128 64.52 128 4 C87.08 4 46.16 4 4 4 Z " fill="#FFFFFF" transform="translate(412,55)"/>
</svg>
