<?xml version="1.0" encoding="UTF-8"?>
<svg version="1.1" xmlns="http://www.w3.org/2000/svg" width="2048" height="1280">
<path d="M0 0 C308.22 0 616.44 0 934 0 C934 121.77 934 243.54 934 369 C943.24 369.33 952.48 369.66 962 370 C962 308.95 962 247.9 962 185 C1006.88 185 1051.76 185 1098 185 C1098 247.37 1098 309.74 1098 374 C1053.45 374 1008.9 374 963 374 C963 434.39 963 494.78 963 557 C1007.0545715 556.96037994 1007.0545715 556.96037994 1051.10913086 556.90991211 C1059.61047363 556.90539551 1059.61047363 556.90539551 1063.58448792 556.90455627 C1066.37278532 556.90362088 1069.16106388 556.89985861 1071.94935608 556.89442444 C1075.49944937 556.88759657 1079.04951501 556.88550302 1082.59961426 556.88692772 C1084.52605082 556.88648822 1086.45248428 556.88110864 1088.37891293 556.87557125 C1090.06868173 556.8776375 1090.06868173 556.8776375 1091.79258728 556.87974548 C1092.77982757 556.87882369 1093.76706785 556.8779019 1094.78422451 556.87695217 C1097 557 1097 557 1098 558 C1098.09769053 560.4411002 1098.12996385 562.85387292 1098.12025452 565.29542542 C1098.12110894 566.06807124 1098.12196337 566.84071706 1098.12284368 567.63677639 C1098.12450082 570.24558554 1098.11897331 572.85433146 1098.11352539 575.46313477 C1098.11324354 577.32532754 1098.1134012 579.18752043 1098.1139679 581.04971313 C1098.11425597 586.12181586 1098.10835771 591.19389515 1098.10139394 596.2659924 C1098.09516197 601.56046001 1098.09455673 606.8549281 1098.09336853 612.1493988 C1098.09025475 622.18271424 1098.08204073 632.21601885 1098.07201904 642.24932951 C1098.05877453 655.80206067 1098.05335837 669.35479478 1098.04751682 682.90753078 C1098.03810087 704.27169531 1098.01818227 725.63583697 1098 747 C1053.12 747 1008.24 747 962 747 C962 685.62 962 624.24 962 561 C953.09 561 944.18 561 935 561 C934.99576806 562.91111289 934.99153612 564.82222578 934.98717594 566.79125118 C934.88660748 612.1070335 934.7809189 657.42280146 934.66888306 702.73855695 C934.65511267 708.31016092 934.64138569 713.881765 934.62768555 719.45336914 C934.62495724 720.56262491 934.62222894 721.67188068 934.61941796 722.81475026 C934.57528369 740.80071223 934.53467052 758.78668052 934.49534739 776.77265357 C934.45495215 795.21334048 934.41079909 813.6540156 934.36312145 832.09468514 C934.3337962 843.48328266 934.30743944 854.87187924 934.28482103 866.26049209 C934.26905295 874.05883527 934.2496511 881.857164 934.22733159 889.65549117 C934.21454322 894.1618323 934.20341452 898.66816224 934.19658089 903.17451668 C934.19030026 907.29301342 934.17949854 911.41147163 934.1649667 915.52994729 C934.16050803 917.02658626 934.15776663 918.52323145 934.15683801 920.01987677 C934.15534304 922.0408956 934.14721314 924.06190637 934.1386652 926.08290768 C934.13600716 927.2095379 934.13334911 928.33616812 934.13061053 929.49693865 C934 932 934 932 933 933 C930.96641297 933.09830174 928.92933974 933.1244713 926.8933782 933.1241985 C926.24419942 933.12547658 925.59502064 933.12675467 924.92616978 933.12807148 C922.71940436 933.13116921 920.51270858 933.12705014 918.3059454 933.12304783 C916.71361535 933.12378655 915.12128546 933.12496415 913.52895603 933.12654433 C909.11244705 933.12963427 904.69596084 933.12642102 900.27945355 933.12226619 C895.49015237 933.11884969 890.70085364 933.12119939 885.91155201 933.12284368 C877.50421043 933.12492363 869.09687591 933.1232631 860.68953514 933.11920547 C848.18798245 933.11318855 835.68643425 933.11286798 823.18488037 933.11374746 C802.15874354 933.11506368 781.13260984 933.1117112 760.10647392 933.10573006 C739.27741925 933.09982012 718.44836588 933.09596554 697.61931038 933.09487724 C695.67922117 933.09477413 695.67922117 933.09477413 693.69993824 933.09466894 C687.1318853 933.09433062 680.56383235 933.09402923 673.9957794 933.09374207 C660.63787006 933.09313895 647.27996074 933.09221047 633.92205143 933.09113979 C632.91945278 933.09105982 632.91945278 933.09105982 631.89659961 933.09097823 C599.36571762 933.08835534 566.83483647 933.08204722 534.30395508 933.07543945 C523.0119629 933.07314784 511.71997071 933.07087249 500.42797852 933.06866455 C499.37751368 933.06845913 499.37751368 933.06845913 498.30582733 933.06824955 C465.76333057 933.06190801 433.22083366 933.0581807 400.67833645 933.05512976 C398.56621392 933.05493169 396.45409139 933.0547325 394.34196886 933.05453308 C380.34507635 933.05321332 366.34818385 933.05193867 352.35129133 933.05069422 C323.8360873 933.04815855 295.32088331 933.04533651 266.80567932 933.04234314 C265.49449545 933.04220585 264.18331157 933.04206856 262.83239485 933.04192711 C222.62991647 933.03770265 182.42743838 933.03227065 142.22496033 933.02565002 C141.0832035 933.02546247 139.94144666 933.02527491 138.76509114 933.02508167 C92.51006063 933.01746501 46.25503034 933.00857202 0 933 C-0.33 810.24 -0.66 687.48 -1 561 C-9.25 561 -17.5 561 -26 561 C-26.33 622.38 -26.66 683.76 -27 747 C-71.55 747 -116.1 747 -162 747 C-162 684.3 -162 621.6 -162 557 C-118.11 556.67 -74.22 556.34 -29 556 C-29.01160156 543.10164062 -29.02320313 530.20328125 -29.03515625 516.9140625 C-29.04026293 508.7656248 -29.04511797 500.61718826 -29.04882812 492.46875 C-29.05477034 479.52180588 -29.06176987 466.57486826 -29.07543945 453.62792969 C-29.08538856 444.20031173 -29.09185397 434.77269902 -29.09408849 425.34507596 C-29.09539521 420.35055414 -29.09847864 415.35604733 -29.10573006 410.3615303 C-29.11249383 405.66503917 -29.11461622 400.96856929 -29.11310768 396.27207375 C-29.11338385 394.54425122 -29.11538686 392.81642802 -29.11920547 391.0886097 C-29.12414828 388.73772702 -29.12299609 386.38692564 -29.12025452 384.03604126 C-29.12163721 382.05879531 -29.12163721 382.05879531 -29.12304783 380.041605 C-29 377 -29 377 -28 375 C-72.22 375 -116.44 375 -162 375 C-162 312.3 -162 249.6 -162 185 C-117.45 185 -72.9 185 -27 185 C-27 246.05 -27 307.1 -27 370 C-18.09 370 -9.18 370 0 370 C0 247.9 0 125.8 0 0 Z M7 7 C7 125.8 7 244.6 7 367 C310.27 367 613.54 367 926 367 C926 248.2 926 129.4 926 7 C622.73 7 319.46 7 7 7 Z M-155 192 C-155 250.08 -155 308.16 -155 368 C-95.105 367.505 -95.105 367.505 -34 367 C-34 309.25 -34 251.5 -34 192 C-73.93 192 -113.86 192 -155 192 Z M969 192 C969 249.75 969 307.5 969 367 C1008.93 367 1048.86 367 1090 367 C1090 309.25 1090 251.5 1090 192 C1050.07 192 1010.14 192 969 192 Z M107 374 C107 434.72 107 495.44 107 558 C344.93 558 582.86 558 828 558 C828 497.28 828 436.56 828 374 C590.07 374 352.14 374 107 374 Z M-21 378 C-21 435.42 -21 492.84 -21 552 C18.6 552 58.2 552 99 552 C99 494.58 99 437.16 99 378 C59.4 378 19.8 378 -21 378 Z M835 378 C835 435.42 835 492.84 835 552 C874.93 552 914.86 552 956 552 C956 494.58 956 437.16 956 378 C916.07 378 876.14 378 835 378 Z M-155 564 C-155 622.08 -155 680.16 -155 740 C-115.07 740 -75.14 740 -34 740 C-34 682.25 -34 624.5 -34 565 C-73.93 564.67 -113.86 564.34 -155 564 Z M7 565 C7 683.8 7 802.6 7 925 C310.27 925 613.54 925 926 925 C926 806.53 926 688.06 926 566 C471.095 565.505 471.095 565.505 7 565 Z M1084.32408142 564.03796387 C1083.31512031 564.0463604 1082.30615919 564.05475693 1081.2666235 564.0634079 C1079.58571542 564.07746044 1079.58571542 564.07746044 1077.87084961 564.09179688 C1076.08647539 564.10666515 1076.08647539 564.10666515 1074.2660532 564.1218338 C1070.39481639 564.15410035 1066.52358006 564.18642424 1062.65234375 564.21875 C1060.27054853 564.23861054 1057.88875329 564.25846734 1055.50695801 564.27832031 C1046.65047163 564.35216815 1037.79398585 564.42608854 1028.9375 564.5 C999.2684375 564.7475 999.2684375 564.7475 969 565 C969 622.75 969 680.5 969 740 C1008.93 740 1048.86 740 1090 740 C1090 681.92 1090 623.84 1090 564 C1088.10798482 564 1086.21601693 564.0221813 1084.32408142 564.03796387 Z " fill="#FFFFFF" transform="translate(573,117)"/>
</svg>
