<?xml version="1.0" encoding="UTF-8"?>
<svg version="1.1" xmlns="http://www.w3.org/2000/svg" width="2048" height="1280">
<path d="M0 0 C43.56 0 87.12 0 132 0 C132 61.38 132 122.76 132 186 C88.44 186 44.88 186 0 186 C0 124.62 0 63.24 0 0 Z M3 5 C3 63.08 3 121.16 3 181 C44.25 181 85.5 181 128 181 C128 122.92 128 64.84 128 5 C86.75 5 45.5 5 3 5 Z " fill="#FFFFFF" transform="translate(1536,970)"/>
<path d="M0 0 C43.56 0 87.12 0 132 0 C132 61.38 132 122.76 132 186 C88.44 186 44.88 186 0 186 C0 124.62 0 63.24 0 0 Z M3 5 C3 63.08 3 121.16 3 181 C44.25 181 85.5 181 128 181 C128 122.92 128 64.84 128 5 C86.75 5 45.5 5 3 5 Z " fill="#FFFFFF" transform="translate(412,970)"/>
<path d="M0 0 C43.56 0 87.12 0 132 0 C132 61.38 132 122.76 132 186 C88.44 186 44.88 186 0 186 C0 124.62 0 63.24 0 0 Z M3 5 C3 63.08 3 121.16 3 181 C44.25 181 85.5 181 128 181 C128 122.92 128 64.84 128 5 C86.75 5 45.5 5 3 5 Z " fill="#FFFFFF" transform="translate(1536,12)"/>
<path d="M0 0 C43.56 0 87.12 0 132 0 C132 61.38 132 122.76 132 186 C88.44 186 44.88 186 0 186 C0 124.62 0 63.24 0 0 Z M3 5 C3 63.08 3 121.16 3 181 C44.25 181 85.5 181 128 181 C128 122.92 128 64.84 128 5 C86.75 5 45.5 5 3 5 Z " fill="#FFFFFF" transform="translate(412,12)"/>
</svg>
