<?xml version="1.0" encoding="UTF-8"?>
<svg version="1.1" xmlns="http://www.w3.org/2000/svg" width="2048" height="1280">
<path d="M0 0 C307.56 0 615.12 0 932 0 C932 122.43 932 244.86 932 371 C941.9 371 951.8 371 962 371 C962 309.62 962 248.24 962 185 C1006.22 185 1050.44 185 1096 185 C1096 247.37 1096 309.74 1096 374 C1051.78 374 1007.56 374 962 374 C962 434.72 962 495.44 962 558 C1006.22 558 1050.44 558 1096 558 C1096 620.04 1096 682.08 1096 746 C1051.78 746 1007.56 746 962 746 C962 684.29 962 622.58 962 559 C952.1 559 942.2 559 932 559 C932 682.09 932 805.18 932 932 C624.44 932 316.88 932 0 932 C0 808.91 0 685.82 0 559 C-9.24 559 -18.48 559 -28 559 C-28 620.71 -28 682.42 -28 746 C-72.22 746 -116.44 746 -162 746 C-162 683.96 -162 621.92 -162 558 C-117.78 558 -73.56 558 -28 558 C-28 497.28 -28 436.56 -28 374 C-72.22 374 -116.44 374 -162 374 C-162 311.96 -162 249.92 -162 186 C-117.78 186 -73.56 186 -28 186 C-28 247.05 -28 308.1 -28 371 C-18.76 371 -9.52 371 0 371 C0 248.57 0 126.14 0 0 Z M6 6 C6 125.46 6 244.92 6 368 C309.6 368 613.2 368 926 368 C926 248.54 926 129.08 926 6 C622.4 6 318.8 6 6 6 Z M968 191 C968 249.41 968 307.82 968 368 C1008.26 368 1048.52 368 1090 368 C1090 309.59 1090 251.18 1090 191 C1049.74 191 1009.48 191 968 191 Z M-156 192 C-156 250.08 -156 308.16 -156 368 C-115.74 368 -75.48 368 -34 368 C-34 309.92 -34 251.84 -34 192 C-74.26 192 -114.52 192 -156 192 Z M106 374 C106 434.72 106 495.44 106 558 C344.26 558 582.52 558 828 558 C828 497.28 828 436.56 828 374 C589.74 374 351.48 374 106 374 Z M-22 377 C-22 435.08 -22 493.16 -22 553 C18.26 553 58.52 553 100 553 C100 494.92 100 436.84 100 377 C59.74 377 19.48 377 -22 377 Z M834 377 C834 435.08 834 493.16 834 553 C874.26 553 914.52 553 956 553 C956 494.92 956 436.84 956 377 C915.74 377 875.48 377 834 377 Z M-156 564 C-156 622.08 -156 680.16 -156 740 C-115.74 740 -75.48 740 -34 740 C-34 681.92 -34 623.84 -34 564 C-74.26 564 -114.52 564 -156 564 Z M6 564 C6 683.46 6 802.92 6 926 C309.6 926 613.2 926 926 926 C926 806.54 926 687.08 926 564 C925.67 564 925.34 564 925 564 C925 683.13 925 802.26 925 925 C622.06 925 319.12 925 7 925 C7 805.87 7 686.74 7 564 C6.67 564 6.34 564 6 564 Z M968 564 C968 622.08 968 680.16 968 740 C1008.26 740 1048.52 740 1090 740 C1090 681.92 1090 623.84 1090 564 C1049.74 564 1009.48 564 968 564 Z M8 565 C8 565.33 8 565.66 8 566 C310.28 566 612.56 566 924 566 C924 565.67 924 565.34 924 565 C621.72 565 319.44 565 8 565 Z M8 567 C8 684.81 8 802.62 8 924 C310.28 924 612.56 924 924 924 C924 806.19 924 688.38 924 567 C621.72 567 319.44 567 8 567 Z " fill="#FFFFFF" transform="translate(573,117)"/>
<path d="M0 0 C302.94 0 605.88 0 918 0 C918 118.8 918 237.6 918 360 C615.06 360 312.12 360 0 360 C0 241.2 0 122.4 0 0 Z M1 1 C1 119.14 1 237.28 1 359 C303.28 359 605.56 359 917 359 C917 240.86 917 122.72 917 1 C614.72 1 312.44 1 1 1 Z " fill="#FFFFFF" transform="translate(580,124)"/>
<path d="M0 0 C237.6 0 475.2 0 720 0 C720 60.06 720 120.12 720 182 C482.4 182 244.8 182 0 182 C0 121.94 0 61.88 0 0 Z M1 1 C1 60.4 1 119.8 1 181 C237.94 181 474.88 181 719 181 C719 121.6 719 62.2 719 1 C482.06 1 245.12 1 1 1 Z " fill="#FFFFFF" transform="translate(680,492)"/>
<path d="M0 0 C307.56 0 615.12 0 932 0 C932 0.33 932 0.66 932 1 C624.44 1 316.88 1 0 1 C0 0.67 0 0.34 0 0 Z " fill="#FFFFFF" transform="translate(573,1050)"/>
<path d="M0 0 C307.56 0 615.12 0 932 0 C932 0.33 932 0.66 932 1 C624.44 1 316.88 1 0 1 C0 0.67 0 0.34 0 0 Z " fill="#FFFFFF" transform="translate(573,115)"/>
<path d="M0 0 C39.6 0 79.2 0 120 0 C120 57.75 120 115.5 120 175 C80.4 175 40.8 175 0 175 C0 117.25 0 59.5 0 0 Z M1 1 C1 58.09 1 115.18 1 174 C39.94 174 78.88 174 119 174 C119 116.91 119 59.82 119 1 C80.06 1 41.12 1 1 1 Z " fill="#FFFFFF" transform="translate(1542,309)"/>
<path d="M0 0 C39.6 0 79.2 0 120 0 C120 57.42 120 114.84 120 174 C80.4 174 40.8 174 0 174 C0 116.58 0 59.16 0 0 Z M1 1 C1 57.76 1 114.52 1 173 C39.94 173 78.88 173 119 173 C119 116.24 119 59.48 119 1 C80.06 1 41.12 1 1 1 Z " fill="#FFFFFF" transform="translate(1542,682)"/>
<path d="M0 0 C39.6 0 79.2 0 120 0 C120 57.42 120 114.84 120 174 C80.4 174 40.8 174 0 174 C0 116.58 0 59.16 0 0 Z M1 1 C1 57.76 1 114.52 1 173 C39.94 173 78.88 173 119 173 C119 116.24 119 59.48 119 1 C80.06 1 41.12 1 1 1 Z " fill="#FFFFFF" transform="translate(418,682)"/>
<path d="M0 0 C9.24 0 18.48 0 28 0 C28 61.38 28 122.76 28 186 C27.67 186 27.34 186 27 186 C27 124.95 27 63.9 27 1 C18.42 1 9.84 1 1 1 C1 123.43 1 245.86 1 372 C0.67 372 0.34 372 0 372 C0 249.24 0 126.48 0 0 Z " fill="#FFFFFF" transform="translate(1506,677)"/>
<path d="M0 0 C39.6 0 79.2 0 120 0 C120 57.42 120 114.84 120 174 C80.4 174 40.8 174 0 174 C0 116.58 0 59.16 0 0 Z M1 1 C1 57.76 1 114.52 1 173 C39.94 173 78.88 173 119 173 C119 116.24 119 59.48 119 1 C80.06 1 41.12 1 1 1 Z " fill="#FFFFFF" transform="translate(1408,495)"/>
<path d="M0 0 C39.6 0 79.2 0 120 0 C120 57.42 120 114.84 120 174 C80.4 174 40.8 174 0 174 C0 116.58 0 59.16 0 0 Z M1 1 C1 57.76 1 114.52 1 173 C39.94 173 78.88 173 119 173 C119 116.24 119 59.48 119 1 C80.06 1 41.12 1 1 1 Z " fill="#FFFFFF" transform="translate(552,495)"/>
<path d="M0 0 C39.6 0 79.2 0 120 0 C120 57.42 120 114.84 120 174 C80.4 174 40.8 174 0 174 C0 116.58 0 59.16 0 0 Z M1 1 C1 57.76 1 114.52 1 173 C39.94 173 78.88 173 119 173 C119 116.24 119 59.48 119 1 C80.06 1 41.12 1 1 1 Z " fill="#FFFFFF" transform="translate(418,310)"/>
<path d="M0 0 C8.58 0 17.16 0 26 0 C26 122.76 26 245.52 26 372 C25.67 372 25.34 372 25 372 C25 249.57 25 127.14 25 1 C17.08 1 9.16 1 1 1 C1 62.05 1 123.1 1 186 C0.67 186 0.34 186 0 186 C0 124.62 0 63.24 0 0 Z " fill="#FFFFFF" transform="translate(546,677)"/>
<path d="M0 0 C0.33 0 0.66 0 1 0 C1 121.77 1 243.54 1 369 C9.58 369 18.16 369 27 369 C27 308.28 27 247.56 27 185 C27.33 185 27.66 185 28 185 C28 246.05 28 307.1 28 370 C18.76 370 9.52 370 0 370 C0 247.9 0 125.8 0 0 Z " fill="#FFFFFF" transform="translate(1506,117)"/>
<path d="M0 0 C0.33 0 0.66 0 1 0 C1 122.1 1 244.2 1 370 C-7.58 370 -16.16 370 -25 370 C-25 309.28 -25 248.56 -25 186 C-24.67 186 -24.34 186 -24 186 C-24 246.39 -24 306.78 -24 369 C-16.08 369 -8.16 369 0 369 C0 247.23 0 125.46 0 0 Z " fill="#FFFFFF" transform="translate(571,117)"/>
<path d="M0 0 C43.89 0 87.78 0 133 0 C133 0.33 133 0.66 133 1 C89.44 1 45.88 1 1 1 C1 60.4 1 119.8 1 181 C44.56 181 88.12 181 133 181 C133 181.33 133 181.66 133 182 C89.11 182 45.22 182 0 182 C0 121.94 0 61.88 0 0 Z " fill="#FFFFFF" transform="translate(1536,492)"/>
<path d="M0 0 C43.56 0 87.12 0 132 0 C132 60.06 132 120.12 132 182 C88.11 182 44.22 182 -1 182 C-1 181.67 -1 181.34 -1 181 C42.56 181 86.12 181 131 181 C131 121.6 131 62.2 131 1 C87.77 1 44.54 1 0 1 C0 0.67 0 0.34 0 0 Z " fill="#FFFFFF" transform="translate(412,492)"/>
<path d="M0 0 C0.33 0 0.66 0 1 0 C1 62.37 1 124.74 1 189 C0.67 189 0.34 189 0 189 C0 126.63 0 64.26 0 0 Z " fill="#FFFFFF" transform="translate(1670,302)"/>
<path d="M0 0 C0.33 0 0.66 0 1 0 C1 62.04 1 124.08 1 188 C0.67 188 0.34 188 0 188 C0 125.96 0 63.92 0 0 Z " fill="#FFFFFF" transform="translate(1670,675)"/>
<path d="M0 0 C0.33 0 0.66 0 1 0 C1 62.04 1 124.08 1 188 C0.67 188 0.34 188 0 188 C0 125.96 0 63.92 0 0 Z " fill="#FFFFFF" transform="translate(409,675)"/>
<path d="M0 0 C0.33 0 0.66 0 1 0 C1 62.04 1 124.08 1 188 C0.67 188 0.34 188 0 188 C0 125.96 0 63.92 0 0 Z " fill="#FFFFFF" transform="translate(409,303)"/>
<path d="M0 0 C44.22 0 88.44 0 134 0 C134 0.33 134 0.66 134 1 C89.78 1 45.56 1 0 1 C0 0.67 0 0.34 0 0 Z " fill="#FFFFFF" transform="translate(1535,864)"/>
<path d="M0 0 C44.22 0 88.44 0 134 0 C134 0.33 134 0.66 134 1 C89.78 1 45.56 1 0 1 C0 0.67 0 0.34 0 0 Z " fill="#FFFFFF" transform="translate(411,864)"/>
<path d="M0 0 C44.22 0 88.44 0 134 0 C134 0.33 134 0.66 134 1 C89.78 1 45.56 1 0 1 C0 0.67 0 0.34 0 0 Z " fill="#FFFFFF" transform="translate(411,301)"/>
<path d="M0 0 C44.22 0 88.44 0 134 0 C134 0.33 134 0.66 134 1 C89.78 1 45.56 1 0 1 C0 0.67 0 0.34 0 0 Z " fill="#FFFFFF" transform="translate(1535,300)"/>
<path d="" fill="#FFFFFF" transform="translate(0,0)"/>
<path d="" fill="#FFFFFF" transform="translate(0,0)"/>
<path d="" fill="#FFFFFF" transform="translate(0,0)"/>
<path d="" fill="#FFFFFF" transform="translate(0,0)"/>
<path d="" fill="#FFFFFF" transform="translate(0,0)"/>
<path d="" fill="#FFFFFF" transform="translate(0,0)"/>
<path d="" fill="#FFFFFF" transform="translate(0,0)"/>
<path d="" fill="#FFFFFF" transform="translate(0,0)"/>
<path d="" fill="#FFFFFF" transform="translate(0,0)"/>
<path d="" fill="#FFFFFF" transform="translate(0,0)"/>
<path d="" fill="#FFFFFF" transform="translate(0,0)"/>
<path d="" fill="#FFFFFF" transform="translate(0,0)"/>
<path d="" fill="#FFFFFF" transform="translate(0,0)"/>
<path d="" fill="#FFFFFF" transform="translate(0,0)"/>
<path d="" fill="#FFFFFF" transform="translate(0,0)"/>
</svg>
