<?xml version="1.0" encoding="UTF-8"?>
<svg version="1.1" xmlns="http://www.w3.org/2000/svg" width="2048" height="1280">
<path d="M0 0 C307.23 0 614.46 0 931 0 C931 122.76 931 245.52 931 372 C940.9 372 950.8 372 961 372 C961 433.38 961 494.76 961 558 C951.1 558 941.2 558 931 558 C931 680.76 931 803.52 931 930 C623.77 930 316.54 930 0 930 C0 807.24 0 684.48 0 558 C-9.24 558 -18.48 558 -28 558 C-28 496.62 -28 435.24 -28 372 C-18.76 372 -9.52 372 0 372 C0 249.24 0 126.48 0 0 Z M4 4 C4 124.12 4 244.24 4 368 C308.59 368 613.18 368 927 368 C927 247.88 927 127.76 927 4 C622.41 4 317.82 4 4 4 Z M104 372 C104 433.38 104 494.76 104 558 C343.25 558 582.5 558 829 558 C829 496.62 829 435.24 829 372 C589.75 372 350.5 372 104 372 Z M-24 376 C-24 434.74 -24 493.48 -24 554 C16.92 554 57.84 554 100 554 C100 495.26 100 436.52 100 376 C59.08 376 18.16 376 -24 376 Z M833 376 C833 434.74 833 493.48 833 554 C873.92 554 914.84 554 957 554 C957 495.26 957 436.52 957 376 C916.08 376 875.16 376 833 376 Z M4 562 C4 682.12 4 802.24 4 926 C308.59 926 613.18 926 927 926 C927 805.88 927 685.76 927 562 C622.41 562 317.82 562 4 562 Z " fill="#FFFFFF" transform="translate(574,118)"/>
<path d="M0 0 C43.56 0 87.12 0 132 0 C132 61.38 132 122.76 132 186 C88.44 186 44.88 186 0 186 C0 124.62 0 63.24 0 0 Z M4 4 C4 62.74 4 121.48 4 182 C44.92 182 85.84 182 128 182 C128 123.26 128 64.52 128 4 C87.08 4 46.16 4 4 4 Z " fill="#FFFFFF" transform="translate(1535,676)"/>
<path d="M0 0 C43.56 0 87.12 0 132 0 C132 61.38 132 122.76 132 186 C88.44 186 44.88 186 0 186 C0 124.62 0 63.24 0 0 Z M4 4 C4 62.74 4 121.48 4 182 C44.92 182 85.84 182 128 182 C128 123.26 128 64.52 128 4 C87.08 4 46.16 4 4 4 Z " fill="#FFFFFF" transform="translate(414,676)"/>
<path d="M0 0 C43.56 0 87.12 0 132 0 C132 61.38 132 122.76 132 186 C88.44 186 44.88 186 0 186 C0 124.62 0 63.24 0 0 Z M4 4 C4 62.74 4 121.48 4 182 C44.92 182 85.84 182 128 182 C128 123.26 128 64.52 128 4 C87.08 4 46.16 4 4 4 Z " fill="#FFFFFF" transform="translate(1535,304)"/>
<path d="M0 0 C43.56 0 87.12 0 132 0 C132 61.38 132 122.76 132 186 C88.44 186 44.88 186 0 186 C0 124.62 0 63.24 0 0 Z M4 4 C4 62.74 4 121.48 4 182 C44.92 182 85.84 182 128 182 C128 123.26 128 64.52 128 4 C87.08 4 46.16 4 4 4 Z " fill="#FFFFFF" transform="translate(414,304)"/>
</svg>
