<?xml version="1.0" encoding="UTF-8"?>
<svg version="1.1" xmlns="http://www.w3.org/2000/svg" width="2048" height="1280">
<path d="M0 0 C43.56 0 87.12 0 132 0 C132 61.38 132 122.76 132 186 C141.9 186 151.8 186 162 186 C162 155.64 162 125.28 162 94 C468.9 94 775.8 94 1092 94 C1092 124.36 1092 154.72 1092 186 C1102.56 186 1113.12 186 1124 186 C1124 124.62 1124 63.24 1124 0 C1167.56 0 1211.12 0 1256 0 C1256 61.38 1256 122.76 1256 186 C1245.44 186 1234.88 186 1224 186 C1224 247.38 1224 308.76 1224 372 C1180.44 372 1136.88 372 1092 372 C1092 402.36 1092 432.72 1092 464 C785.1 464 478.2 464 162 464 C162 433.64 162 403.28 162 372 C118.44 372 74.88 372 30 372 C30 310.62 30 249.24 30 186 C20.1 186 10.2 186 0 186 C0 124.62 0 63.24 0 0 Z M3 5 C3 63.08 3 121.16 3 181 C44.25 181 85.5 181 128 181 C128 122.92 128 64.84 128 5 C86.75 5 45.5 5 3 5 Z M1127 5 C1127 63.08 1127 121.16 1127 181 C1168.25 181 1209.5 181 1252 181 C1252 122.92 1252 64.84 1252 5 C1210.75 5 1169.5 5 1127 5 Z M166 98 C166 156.41 166 214.82 166 275 C224.74 275 283.48 275 344 275 C344 216.59 344 158.18 344 98 C285.26 98 226.52 98 166 98 Z M352 98 C352 156.41 352 214.82 352 275 C410.74 275 469.48 275 530 275 C530 216.59 530 158.18 530 98 C471.26 98 412.52 98 352 98 Z M538 98 C538 156.41 538 214.82 538 275 C596.74 275 655.48 275 716 275 C716 216.59 716 158.18 716 98 C657.26 98 598.52 98 538 98 Z M724 98 C724 156.41 724 214.82 724 275 C782.74 275 841.48 275 902 275 C902 216.59 902 158.18 902 98 C843.26 98 784.52 98 724 98 Z M910 98 C910 156.41 910 214.82 910 275 C968.74 275 1027.48 275 1088 275 C1088 216.59 1088 158.18 1088 98 C1029.26 98 970.52 98 910 98 Z M33 191 C33 249.08 33 307.16 33 367 C74.25 367 115.5 367 158 367 C158 308.92 158 250.84 158 191 C116.75 191 75.5 191 33 191 Z M1095 191 C1095 249.08 1095 307.16 1095 367 C1136.25 367 1177.5 367 1220 367 C1220 308.92 1220 250.84 1220 191 C1178.75 191 1137.5 191 1095 191 Z M166 283 C166 341.41 166 399.82 166 460 C224.74 460 283.48 460 344 460 C344 401.59 344 343.18 344 283 C285.26 283 226.52 283 166 283 Z M352 283 C352 341.41 352 399.82 352 460 C410.74 460 469.48 460 530 460 C530 401.59 530 343.18 530 283 C471.26 283 412.52 283 352 283 Z M538 283 C538 341.41 538 399.82 538 460 C596.74 460 655.48 460 716 460 C716 401.59 716 343.18 716 283 C657.26 283 598.52 283 538 283 Z M724 283 C724 341.41 724 399.82 724 460 C782.74 460 841.48 460 902 460 C902 401.59 902 343.18 902 283 C843.26 283 784.52 283 724 283 Z M910 283 C910 341.41 910 399.82 910 460 C968.74 460 1027.48 460 1088 460 C1088 401.59 1088 343.18 1088 283 C1029.26 283 970.52 283 910 283 Z " fill="#FFFFFF" transform="translate(412,584)"/>
<path d="M0 0 C306.9 0 613.8 0 930 0 C930 30.36 930 60.72 930 92 C973.56 92 1017.12 92 1062 92 C1062 153.38 1062 214.76 1062 278 C1072.56 278 1083.12 278 1094 278 C1094 339.38 1094 400.76 1094 464 C1050.44 464 1006.88 464 962 464 C962 402.62 962 341.24 962 278 C951.44 278 940.88 278 930 278 C930 308.36 930 338.72 930 370 C623.1 370 316.2 370 0 370 C0 339.64 0 309.28 0 278 C-9.9 278 -19.8 278 -30 278 C-30 339.38 -30 400.76 -30 464 C-73.56 464 -117.12 464 -162 464 C-162 402.62 -162 341.24 -162 278 C-152.1 278 -142.2 278 -132 278 C-132 216.62 -132 155.24 -132 92 C-88.44 92 -44.88 92 0 92 C0 61.64 0 31.28 0 0 Z M4 4 C4 62.41 4 120.82 4 181 C62.74 181 121.48 181 182 181 C182 122.59 182 64.18 182 4 C123.26 4 64.52 4 4 4 Z M190 4 C190 62.41 190 120.82 190 181 C248.74 181 307.48 181 368 181 C368 122.59 368 64.18 368 4 C309.26 4 250.52 4 190 4 Z M376 4 C376 62.41 376 120.82 376 181 C434.74 181 493.48 181 554 181 C554 122.59 554 64.18 554 4 C495.26 4 436.52 4 376 4 Z M562 4 C562 62.41 562 120.82 562 181 C620.74 181 679.48 181 740 181 C740 122.59 740 64.18 740 4 C681.26 4 622.52 4 562 4 Z M748 4 C748 62.41 748 120.82 748 181 C806.74 181 865.48 181 926 181 C926 122.59 926 64.18 926 4 C867.26 4 808.52 4 748 4 Z M-129 97 C-129 155.08 -129 213.16 -129 273 C-87.75 273 -46.5 273 -4 273 C-4 214.92 -4 156.84 -4 97 C-45.25 97 -86.5 97 -129 97 Z M933 97 C933 155.08 933 213.16 933 273 C974.25 273 1015.5 273 1058 273 C1058 214.92 1058 156.84 1058 97 C1016.75 97 975.5 97 933 97 Z M4 189 C4 247.41 4 305.82 4 366 C62.74 366 121.48 366 182 366 C182 307.59 182 249.18 182 189 C123.26 189 64.52 189 4 189 Z M190 189 C190 247.41 190 305.82 190 366 C248.74 366 307.48 366 368 366 C368 307.59 368 249.18 368 189 C309.26 189 250.52 189 190 189 Z M376 189 C376 247.41 376 305.82 376 366 C434.74 366 493.48 366 554 366 C554 307.59 554 249.18 554 189 C495.26 189 436.52 189 376 189 Z M562 189 C562 247.41 562 305.82 562 366 C620.74 366 679.48 366 740 366 C740 307.59 740 249.18 740 189 C681.26 189 622.52 189 562 189 Z M748 189 C748 247.41 748 305.82 748 366 C806.74 366 865.48 366 926 366 C926 307.59 926 249.18 926 189 C867.26 189 808.52 189 748 189 Z M-159 283 C-159 341.08 -159 399.16 -159 459 C-117.75 459 -76.5 459 -34 459 C-34 400.92 -34 342.84 -34 283 C-75.25 283 -116.5 283 -159 283 Z M965 283 C965 341.08 965 399.16 965 459 C1006.25 459 1047.5 459 1090 459 C1090 400.92 1090 342.84 1090 283 C1048.75 283 1007.5 283 965 283 Z " fill="#FFFFFF" transform="translate(574,118)"/>
<path d="M0 0 C43.56 0 87.12 0 132 0 C132 61.38 132 122.76 132 186 C88.44 186 44.88 186 0 186 C0 124.62 0 63.24 0 0 Z M3 5 C3 63.08 3 121.16 3 181 C44.25 181 85.5 181 128 181 C128 122.92 128 64.84 128 5 C86.75 5 45.5 5 3 5 Z " fill="#FFFFFF" transform="translate(1402,490)"/>
<path d="M0 0 C43.56 0 87.12 0 132 0 C132 61.38 132 122.76 132 186 C88.44 186 44.88 186 0 186 C0 124.62 0 63.24 0 0 Z M3 5 C3 63.08 3 121.16 3 181 C44.25 181 85.5 181 128 181 C128 122.92 128 64.84 128 5 C86.75 5 45.5 5 3 5 Z " fill="#FFFFFF" transform="translate(546,490)"/>
</svg>
