<?xml version="1.0" encoding="UTF-8"?>
<svg version="1.1" xmlns="http://www.w3.org/2000/svg" width="3200" height="2000">
<path d="M0 0 C480.15 0 960.3 0 1455 0 C1455 191.07 1455 382.14 1455 579 C1470.51 579 1486.02 579 1502 579 C1502 675.69 1502 772.38 1502 872 C1486.49 872 1470.98 872 1455 872 C1455 1064.06 1455 1256.12 1455 1454 C974.85 1454 494.7 1454 0 1454 C0 1261.94 0 1069.88 0 872 C-14.52 872 -29.04 872 -44 872 C-44 775.31 -44 678.62 -44 579 C-29.48 579 -14.96 579 0 579 C0 387.93 0 196.86 0 0 Z M8 8 C8 194.78 8 381.56 8 574 C482.87 574 957.74 574 1447 574 C1447 387.22 1447 200.44 1447 8 C972.13 8 497.26 8 8 8 Z M164 582 C164 677.7 164 773.4 164 872 C536.9 872 909.8 872 1294 872 C1294 776.3 1294 680.6 1294 582 C921.1 582 548.2 582 164 582 Z M-36 587 C-36 678.41 -36 769.82 -36 864 C27.36 864 90.72 864 156 864 C156 772.59 156 681.18 156 587 C92.64 587 29.28 587 -36 587 Z M1302 587 C1302 678.41 1302 769.82 1302 864 C1365.36 864 1428.72 864 1494 864 C1494 772.59 1494 681.18 1494 587 C1430.64 587 1367.28 587 1302 587 Z M8 880 C8 1066.78 8 1253.56 8 1446 C482.87 1446 957.74 1446 1447 1446 C1447 1259.22 1447 1072.44 1447 880 C972.13 880 497.26 880 8 880 Z " fill="#FFFFFF" transform="translate(896,184)"/>
<path d="M0 0 C68.64 0 137.28 0 208 0 C208 96.69 208 193.38 208 293 C139.36 293 70.72 293 0 293 C0 196.31 0 99.62 0 0 Z M8 8 C8 99.41 8 190.82 8 285 C71.36 285 134.72 285 200 285 C200 193.59 200 102.18 200 8 C136.64 8 73.28 8 8 8 Z " fill="#FFFFFF" transform="translate(2399,1055)"/>
<path d="M0 0 C68.64 0 137.28 0 208 0 C208 96.69 208 193.38 208 293 C139.36 293 70.72 293 0 293 C0 196.31 0 99.62 0 0 Z M8 8 C8 99.41 8 190.82 8 285 C71.36 285 134.72 285 200 285 C200 193.59 200 102.18 200 8 C136.64 8 73.28 8 8 8 Z " fill="#FFFFFF" transform="translate(643,1055)"/>
<path d="M0 0 C68.64 0 137.28 0 208 0 C208 96.69 208 193.38 208 293 C139.36 293 70.72 293 0 293 C0 196.31 0 99.62 0 0 Z M8 8 C8 99.41 8 190.82 8 285 C71.36 285 134.72 285 200 285 C200 193.59 200 102.18 200 8 C136.64 8 73.28 8 8 8 Z " fill="#FFFFFF" transform="translate(643,474)"/>
<path d="M0 0 C68.64 0 137.28 0 208 0 C208 96.69 208 193.38 208 293 C139.36 293 70.72 293 0 293 C0 196.31 0 99.62 0 0 Z M8 8 C8 99.41 8 190.82 8 285 C71.36 285 134.72 285 200 285 C200 193.59 200 102.18 200 8 C136.64 8 73.28 8 8 8 Z " fill="#FFFFFF" transform="translate(2399,473)"/>
</svg>
