<?xml version="1.0" encoding="UTF-8"?>
<svg version="1.1" xmlns="http://www.w3.org/2000/svg" width="691" height="1970">
<path d="M0 0 C228.03 0 456.06 0 691 0 C691 650.1 691 1300.2 691 1970 C462.97 1970 234.94 1970 0 1970 C0 1319.9 0 669.8 0 0 Z " fill="#18181B" transform="translate(0,0)"/>
<path d="M0 0 C55.77 0 111.54 0 169 0 C169 79.2 169 158.4 169 240 C113.23 240 57.46 240 0 240 C0 160.8 0 81.6 0 0 Z " fill="#8B8B8C" transform="translate(519,1729)"/>
<path d="M0 0 C55.77 0 111.54 0 169 0 C169 79.2 169 158.4 169 240 C113.23 240 57.46 240 0 240 C0 160.8 0 81.6 0 0 Z " fill="#8B8B8C" transform="translate(347,1729)"/>
<path d="M0 0 C55.77 0 111.54 0 169 0 C169 79.2 169 158.4 169 240 C113.23 240 57.46 240 0 240 C0 160.8 0 81.6 0 0 Z " fill="#8B8B8C" transform="translate(175,1729)"/>
<path d="M0 0 C55.77 0 111.54 0 169 0 C169 79.2 169 158.4 169 240 C113.23 240 57.46 240 0 240 C0 160.8 0 81.6 0 0 Z " fill="#8B8B8C" transform="translate(3,1729)"/>
<path d="M0 0 C55.77 0 111.54 0 169 0 C169 78.87 169 157.74 169 239 C113.23 239 57.46 239 0 239 C0 160.13 0 81.26 0 0 Z " fill="#8B8B8C" transform="translate(519,1487)"/>
<path d="M0 0 C55.77 0 111.54 0 169 0 C169 78.87 169 157.74 169 239 C113.23 239 57.46 239 0 239 C0 160.13 0 81.26 0 0 Z " fill="#8B8B8C" transform="translate(347,1487)"/>
<path d="M0 0 C55.77 0 111.54 0 169 0 C169 78.87 169 157.74 169 239 C113.23 239 57.46 239 0 239 C0 160.13 0 81.26 0 0 Z " fill="#8B8B8C" transform="translate(175,1487)"/>
<path d="M0 0 C55.77 0 111.54 0 169 0 C169 78.87 169 157.74 169 239 C113.23 239 57.46 239 0 239 C0 160.13 0 81.26 0 0 Z " fill="#8B8B8C" transform="translate(3,1487)"/>
<path d="M0 0 C55.77 0 111.54 0 169 0 C169 78.87 169 157.74 169 239 C113.23 239 57.46 239 0 239 C0 160.13 0 81.26 0 0 Z " fill="#8B8B8C" transform="translate(519,1245)"/>
<path d="M0 0 C55.77 0 111.54 0 169 0 C169 78.87 169 157.74 169 239 C113.23 239 57.46 239 0 239 C0 160.13 0 81.26 0 0 Z " fill="#8B8B8C" transform="translate(347,1245)"/>
<path d="M0 0 C55.77 0 111.54 0 169 0 C169 78.87 169 157.74 169 239 C113.23 239 57.46 239 0 239 C0 160.13 0 81.26 0 0 Z " fill="#8B8B8C" transform="translate(175,1245)"/>
<path d="M0 0 C55.77 0 111.54 0 169 0 C169 78.87 169 157.74 169 239 C113.23 239 57.46 239 0 239 C0 160.13 0 81.26 0 0 Z " fill="#8B8B8C" transform="translate(3,1245)"/>
<path d="M0 0 C55.77 0 111.54 0 169 0 C169 78.87 169 157.74 169 239 C113.23 239 57.46 239 0 239 C0 160.13 0 81.26 0 0 Z " fill="#8B8B8C" transform="translate(519,1003)"/>
<path d="M0 0 C55.77 0 111.54 0 169 0 C169 78.87 169 157.74 169 239 C113.23 239 57.46 239 0 239 C0 160.13 0 81.26 0 0 Z " fill="#8B8B8C" transform="translate(347,1003)"/>
<path d="M0 0 C55.77 0 111.54 0 169 0 C169 78.87 169 157.74 169 239 C113.23 239 57.46 239 0 239 C0 160.13 0 81.26 0 0 Z " fill="#8B8B8C" transform="translate(175,1003)"/>
<path d="M0 0 C55.77 0 111.54 0 169 0 C169 78.87 169 157.74 169 239 C113.23 239 57.46 239 0 239 C0 160.13 0 81.26 0 0 Z " fill="#8B8B8C" transform="translate(3,1003)"/>
<path d="M0 0 C55.77 0 111.54 0 169 0 C169 78.87 169 157.74 169 239 C113.23 239 57.46 239 0 239 C0 160.13 0 81.26 0 0 Z " fill="#8B8B8C" transform="translate(519,761)"/>
<path d="M0 0 C55.77 0 111.54 0 169 0 C169 78.87 169 157.74 169 239 C113.23 239 57.46 239 0 239 C0 160.13 0 81.26 0 0 Z " fill="#8B8B8C" transform="translate(347,761)"/>
<path d="M0 0 C55.77 0 111.54 0 169 0 C169 78.87 169 157.74 169 239 C113.23 239 57.46 239 0 239 C0 160.13 0 81.26 0 0 Z " fill="#8B8B8C" transform="translate(175,761)"/>
<path d="M0 0 C55.77 0 111.54 0 169 0 C169 78.87 169 157.74 169 239 C113.23 239 57.46 239 0 239 C0 160.13 0 81.26 0 0 Z " fill="#8B8B8C" transform="translate(3,761)"/>
<path d="M0 0 C6.93 0 13.86 0 21 0 C21 6.93 21 13.86 21 21 C20.34 19.68 19.68 18.36 19 17 C15.27068471 9.56754005 12.32542866 5.02631995 4.1875 2.25 C2.79482862 1.82288382 1.39995496 1.40260143 0 1 C0 0.67 0 0.34 0 0 Z " fill="#FFFFFF" transform="translate(670,0)"/>
<path d="M0 0 C6.6 0 13.2 0 20 0 C17.63712789 1.57524807 15.7491068 2.54376952 13.1875 3.625 C7.8222039 6.28294595 4.36715427 10.50981289 2.1875 16.07421875 C1.71395797 17.69544252 1.34447195 19.34653465 1 21 C0.67 21 0.34 21 0 21 C0 14.07 0 7.14 0 0 Z " fill="#FFFFFF" transform="translate(0,0)"/>
</svg>
