<?xml version="1.0" encoding="UTF-8"?>
<svg version="1.1" xmlns="http://www.w3.org/2000/svg" width="77" height="73">
<path d="M0 0 C0.70769531 0.52722656 1.41539063 1.05445313 2.14453125 1.59765625 C2.14453125 2.25765625 2.14453125 2.91765625 2.14453125 3.59765625 C3.46453125 3.59765625 4.78453125 3.59765625 6.14453125 3.59765625 C6.96290567 5.01093754 7.77399344 6.42843971 8.58203125 7.84765625 C9.26072266 9.03101563 9.26072266 9.03101563 9.953125 10.23828125 C12.7653139 15.80733729 12.86463957 21.1831754 11.08203125 27.16015625 C8.27605105 32.13850821 4.67856896 35.13058179 -0.23046875 37.97265625 C-4.10399805 38.89492513 -7.89379943 38.75301583 -11.85546875 38.59765625 C-10.10543995 47.00633121 -8.10727086 55.34585414 -1.85546875 61.59765625 C1.16081926 61.35952825 2.78152022 60.89260271 5.14453125 58.97265625 C7.14453125 57.59765625 7.14453125 57.59765625 9.89453125 57.91015625 C10.63703125 58.13703125 11.37953125 58.36390625 12.14453125 58.59765625 C12.63953125 60.57765625 12.63953125 60.57765625 13.14453125 62.59765625 C8.6369821 66.51126951 3.97538587 66.87531599 -1.85546875 66.59765625 C-9.22027912 62.68020393 -11.59697882 55.05350343 -14.12109375 47.59765625 C-14.88303092 44.48506186 -14.98844718 41.78913845 -14.85546875 38.59765625 C-15.44714844 38.45070312 -16.03882813 38.30375 -16.6484375 38.15234375 C-22.61699379 36.45816953 -25.42418991 34.79656359 -28.85546875 29.59765625 C-31.83718506 23.78330944 -32.49094936 17.82108478 -30.62890625 11.58203125 C-28.46034844 6.01825666 -25.79359535 2.67649426 -20.29296875 0.16015625 C-13.79362486 -2.09710091 -6.31970278 -3.10365704 0 0 Z M-6.85546875 2.59765625 C-7.51546875 3.25765625 -8.17546875 3.91765625 -8.85546875 4.59765625 C-7.20546875 4.26765625 -5.55546875 3.93765625 -3.85546875 3.59765625 C-4.84546875 3.26765625 -5.83546875 2.93765625 -6.85546875 2.59765625 Z M-1.85546875 3.59765625 C-0.85546875 5.59765625 -0.85546875 5.59765625 -0.85546875 5.59765625 Z M-20.85546875 4.59765625 C-19.85546875 7.59765625 -19.85546875 7.59765625 -19.85546875 7.59765625 Z M-18.85546875 10.59765625 C-19.84546875 11.25765625 -20.83546875 11.91765625 -21.85546875 12.59765625 C-23.52288613 16.66452791 -23.99077715 20.5731784 -23.41796875 24.91015625 C-21.18850934 28.74482644 -18.8617374 29.73760295 -14.85546875 31.59765625 C-14.19546875 31.59765625 -13.53546875 31.59765625 -12.85546875 31.59765625 C-12.52546875 32.25765625 -12.19546875 32.91765625 -11.85546875 33.59765625 C-9.8308362 34.24978917 -9.8308362 34.24978917 -7.85546875 34.59765625 C-7.85546875 33.93765625 -7.85546875 33.27765625 -7.85546875 32.59765625 C-6.98921875 32.49453125 -6.12296875 32.39140625 -5.23046875 32.28515625 C-1.51958979 31.52923646 1.02831216 30.77176259 4.14453125 28.59765625 C5.12326663 25.00380571 5.12326663 25.00380571 5.14453125 21.59765625 C4.07203125 21.68015625 2.99953125 21.76265625 1.89453125 21.84765625 C-1.85546875 21.59765625 -1.85546875 21.59765625 -4.16796875 19.72265625 C-4.72484375 19.02140625 -5.28171875 18.32015625 -5.85546875 17.59765625 C-6.51546875 16.93765625 -7.17546875 16.27765625 -7.85546875 15.59765625 C-8.18546875 16.38140625 -8.51546875 17.16515625 -8.85546875 17.97265625 C-11.73819045 21.75622848 -14.24981668 21.76712883 -18.85546875 22.59765625 C-18.85546875 21.60765625 -18.85546875 20.61765625 -18.85546875 19.59765625 C-17.86546875 19.26765625 -16.87546875 18.93765625 -15.85546875 18.59765625 C-14.84006763 14.4954204 -14.84006763 14.4954204 -15.85546875 10.59765625 C-14.20546875 10.92765625 -12.55546875 11.25765625 -10.85546875 11.59765625 C-10.85546875 10.93765625 -10.85546875 10.27765625 -10.85546875 9.59765625 C-9.20546875 9.59765625 -7.55546875 9.59765625 -5.85546875 9.59765625 C-5.85546875 10.58765625 -5.85546875 11.57765625 -5.85546875 12.59765625 C-4.86546875 12.26765625 -3.87546875 11.93765625 -2.85546875 11.59765625 C-3.80276412 9.43954237 -3.80276412 9.43954237 -5.85546875 7.59765625 C-11.30092543 6.98284662 -14.36202316 7.2596681 -18.85546875 10.59765625 Z M-25.85546875 9.59765625 C-24.85546875 11.59765625 -24.85546875 11.59765625 -24.85546875 11.59765625 Z M0.14453125 10.59765625 C0.47453125 13.56765625 0.80453125 16.53765625 1.14453125 19.59765625 C2.13453125 19.92765625 3.12453125 20.25765625 4.14453125 20.59765625 C3.67649358 14.95407443 3.67649358 14.95407443 0.14453125 10.59765625 Z M-26.85546875 11.59765625 C-28.20986543 14.3064496 -27.92048326 16.60698893 -27.85546875 19.59765625 C-25.70352505 16.3697407 -25.65460432 15.31364816 -25.85546875 11.59765625 C-26.18546875 11.59765625 -26.51546875 11.59765625 -26.85546875 11.59765625 Z M-26.85546875 23.59765625 C-25.85546875 25.59765625 -25.85546875 25.59765625 -25.85546875 25.59765625 Z " fill="#FEFEFE" transform="translate(46.85546875,3.40234375)"/>
<path d="M0 0 C0 0.99 0 1.98 0 3 C1.32 3 2.64 3 4 3 C4 3.66 4 4.32 4 5 C5.32 5.33 6.64 5.66 8 6 C8.144375 6.598125 8.28875 7.19625 8.4375 7.8125 C8.8872439 9.56150404 9.42892341 11.28677023 10 13 C7.3125 13.3125 7.3125 13.3125 4 13 C1.125 10.5 1.125 10.5 -1 8 C-1.86625 8.825 -2.7325 9.65 -3.625 10.5 C-6.17890641 12.65865899 -6.86639751 12.9876294 -10.375 13.3125 C-11.24125 13.209375 -12.1075 13.10625 -13 13 C-13 12.01 -13 11.02 -13 10 C-12.34 9.67 -11.68 9.34 -11 9 C-10.53476937 7.10466658 -10.53476937 7.10466658 -10.375 4.9375 C-10.25125 3.638125 -10.1275 2.33875 -10 1 C-6.59437148 0.22157062 -3.49234244 -0.09978121 0 0 Z M13 7 C13.33 7.66 13.66 8.32 14 9 C13.01 9.33 12.02 9.66 11 10 C11 9.34 11 8.68 11 8 C11.66 7.67 12.32 7.34 13 7 Z " fill="#E3E3E3" transform="translate(41,13)"/>
<path d="M0 0 C1.65 0.33 3.3 0.66 5 1 C5.33 1.99 5.66 2.98 6 4 C5.401875 3.814375 4.80375 3.62875 4.1875 3.4375 C1.83591238 2.77906313 1.83591238 2.77906313 -1 4 C-0.67 2.68 -0.34 1.36 0 0 Z " fill="#FEFEFE" transform="translate(38,26)"/>
</svg>
