<?xml version="1.0" encoding="UTF-8"?>
<svg version="1.1" xmlns="http://www.w3.org/2000/svg" width="77" height="73">
<path d="M0 0 C0.99 0 1.98 0 3 0 C6.43156089 0.51473413 8.04076956 1.0271797 11 3 C11 3.66 11 4.32 11 5 C12.32 5 13.64 5 15 5 C15.81837442 6.41328129 16.62946219 7.83078346 17.4375 9.25 C18.11619141 10.43335938 18.11619141 10.43335938 18.80859375 11.640625 C21.6062897 17.18098025 21.7039672 22.53611481 20 28.5 C17.86640271 32.99071431 14.12733134 36.32403792 10 39 C6.85582274 39.87365679 3.93990017 40.11762543 0.6875 40.0625 C-1.1378125 40.0315625 -1.1378125 40.0315625 -3 40 C-1.2499712 48.40867496 0.74819789 56.74819789 7 63 C10.01628801 62.761872 11.63698897 62.29494646 14 60.375 C16 59 16 59 18.75 59.3125 C19.4925 59.539375 20.235 59.76625 21 60 C21.33 60.99 21.66 61.98 22 63 C20.18351072 65.68148417 18.60603041 66.84989093 15.4609375 67.62890625 C11.17204363 68.17802339 8.07674186 68.5149635 4.125 66.625 C-2.28683112 58.70450273 -6.65731912 49.29799955 -6 39 C-7.11375 38.855625 -8.2275 38.71125 -9.375 38.5625 C-13 38 -13 38 -15 37 C-15 36.34 -15 35.68 -15 35 C-15.8971875 34.7215625 -15.8971875 34.7215625 -16.8125 34.4375 C-20.10234757 32.27560017 -21.12071183 29.69799918 -22 26 C-22.84128945 19.52790196 -22.98647872 13.69867457 -19.625 7.9375 C-14.8800757 1.82082034 -7.63532542 -0.7449098 0 0 Z M-1 3 C-2.98 3.99 -2.98 3.99 -5 5 C-3.35 5 -1.7 5 0 5 C-0.33 4.34 -0.66 3.68 -1 3 Z M2 4 C1.34 4.66 0.68 5.32 0 6 C0.99 6 1.98 6 3 6 C3.66 5.34 4.32 4.68 5 4 C4.01 4 3.02 4 2 4 Z M7 5 C6.67 5.66 6.34 6.32 6 7 C6.66 7 7.32 7 8 7 C7.67 6.34 7.34 5.68 7 5 Z M-12 6 C-11.67 6.99 -11.34 7.98 -11 9 C-10.67 8.01 -10.34 7.02 -10 6 C-10.66 6 -11.32 6 -12 6 Z M-12.8125 13.6875 C-15.05748023 18.0593036 -15.5267465 22.3144112 -14.0625 27 C-13.711875 27.66 -13.36125 28.32 -13 29 C-12.34 29 -11.68 29 -11 29 C-11 29.66 -11 30.32 -11 31 C-9.35 31.33 -7.7 31.66 -6 32 C-6 32.66 -6 33.32 -6 34 C-3.6097161 35.56287793 -2.19351745 36.00450041 0.6875 35.9375 C5.26302821 34.64253919 9.33760786 33.10307283 13 30 C14.87564461 25.96989875 14.08926576 22.41886243 13.1875 18.1875 C12.10468187 14.90858916 12.10468187 14.90858916 10 12 C9.34 12 8.68 12 8 12 C8 12.99 8 13.98 8 15 C8.66 15 9.32 15 10 15 C10 16.98 10 18.96 10 21 C10.66 21 11.32 21 12 21 C12 21.99 12 22.98 12 24 C6.58657319 22.85485202 4.0657052 21.65987191 1 17 C0.67 17.78375 0.34 18.5675 0 19.375 C-2.8827217 23.15857223 -5.39434793 23.16947258 -10 24 C-10 23.01 -10 22.02 -10 21 C-9.01 20.67 -8.02 20.34 -7 20 C-6.67 17.36 -6.34 14.72 -6 12 C-4.68 12.33 -3.36 12.66 -2 13 C-2 12.34 -2 11.68 -2 11 C-0.35 11 1.3 11 3 11 C3 11.99 3 12.98 3 14 C4.32 13.34 5.64 12.68 7 12 C4.34914255 9.34914255 2.9365449 8.99385918 -0.875 8.625 C-5.7148157 8.82327923 -9.24693204 10.36783327 -12.8125 13.6875 Z M-17 11 C-17 11.66 -17 12.32 -17 13 C-17.99 13.495 -17.99 13.495 -19 14 C-19.46751788 16.35599235 -19.46751788 16.35599235 -19.625 19.0625 C-19.69976563 19.98160156 -19.77453125 20.90070312 -19.8515625 21.84765625 C-19.90054687 22.55792969 -19.94953125 23.26820312 -20 24 C-19.34 24 -18.68 24 -18 24 C-17.63447197 22.58622218 -17.28304505 21.16879424 -16.9375 19.75 C-16.74027344 18.96109375 -16.54304688 18.1721875 -16.33984375 17.359375 C-15.98502733 14.89605178 -16.23122456 13.34395868 -17 11 Z M14 13 C15 15 15 15 15 15 Z M17 24 C18 26 18 26 18 26 Z M-18 25 C-17 28 -17 28 -17 28 Z " fill="#E3E3E2" transform="translate(38,5)"/>
<path d="M0 0 C0.66 1.32 1.32 2.64 2 4 C-3.25603094 8.47735969 -8.40677012 8.11174966 -15 8 C-13.2499712 16.40867496 -11.25180211 24.74819789 -5 31 C-1.98371199 30.761872 -0.36301103 30.29494646 2 28.375 C4 27 4 27 6.75 27.3125 C7.4925 27.539375 8.235 27.76625 9 28 C9.495 29.485 9.495 29.485 10 31 C8.18351072 33.68148417 6.60603041 34.84989093 3.4609375 35.62890625 C-0.82795637 36.17802339 -3.92325814 36.5149635 -7.875 34.625 C-14.28683112 26.70450273 -18.65731912 17.29799955 -18 7 C-19.11375 6.855625 -20.2275 6.71125 -21.375 6.5625 C-25 6 -25 6 -27 5 C-27 4.34 -27 3.68 -27 3 C-27.66 2.67 -28.32 2.34 -29 2 C-27.68 1.67 -26.36 1.34 -25 1 C-24.67 1.66 -24.34 2.32 -24 3 C-23.67 2.34 -23.34 1.68 -23 1 C-22.34 1.33 -21.68 1.66 -21 2 C-18.17239214 2.86284165 -15.83317416 3.0795346 -12.890625 2.87890625 C-12.13652344 2.83056641 -11.38242187 2.78222656 -10.60546875 2.73242188 C-9.82816406 2.67634766 -9.05085938 2.62027344 -8.25 2.5625 C-7.45722656 2.51029297 -6.66445313 2.45808594 -5.84765625 2.40429688 C-3.89806003 2.27510676 -1.94897114 2.13830035 0 2 C0 1.34 0 0.68 0 0 Z " fill="#E3E3E3" transform="translate(50,37)"/>
<path d="M0 0 C0 0.66 0 1.32 0 2 C0.99 2 1.98 2 3 2 C3 2.66 3 3.32 3 4 C3.66 4 4.32 4 5 4 C5.33 5.98 5.66 7.96 6 10 C6.66 10 7.32 10 8 10 C8.18041261 13.96907752 8.07632075 16.58017758 6 20 C5.67 20.66 5.34 21.32 5 22 C5.66 22.33 6.32 22.66 7 23 C6.67 23.66 6.34 24.32 6 25 C5.01 24.67 4.02 24.34 3 24 C3.03480469 23.35933594 3.06960937 22.71867187 3.10546875 22.05859375 C3.28915056 16.18952249 2.85741676 12.16533029 0 7 C-0.66 6.67 -1.32 6.34 -2 6 C-2 6.99 -2 7.98 -2 9 C-1.34 9 -0.68 9 0 9 C0.66 11.97 1.32 14.94 2 18 C-4.52307692 17.50769231 -4.52307692 17.50769231 -6.9375 14.9375 C-7.288125 14.298125 -7.63875 13.65875 -8 13 C-8.86625 13.825 -9.7325 14.65 -10.625 15.5 C-13.17890641 17.65865899 -13.86639751 17.9876294 -17.375 18.3125 C-18.24125 18.209375 -19.1075 18.10625 -20 18 C-20 17.01 -20 16.02 -20 15 C-19.34 14.67 -18.68 14.34 -18 14 C-17.60828247 12.34608154 -17.27942455 10.67654729 -17 9 C-16.67 8.01 -16.34 7.02 -16 6 C-14.68 6.33 -13.36 6.66 -12 7 C-12 6.34 -12 5.68 -12 5 C-10.35 5 -8.7 5 -7 5 C-7 5.99 -7 6.98 -7 8 C-4.12579877 5.28395285 -4.12579877 5.28395285 -2 2 C-2.66 1.67 -3.32 1.34 -4 1 C-2 0 -2 0 0 0 Z " fill="#CDCDCC" transform="translate(48,11)"/>
<path d="M0 0 C0 0.66 0 1.32 0 2 C0.99 2 1.98 2 3 2 C3 2.66 3 3.32 3 4 C3.66 4 4.32 4 5 4 C5.33 5.98 5.66 7.96 6 10 C6.66 10 7.32 10 8 10 C8.18041261 13.96907752 8.07632075 16.58017758 6 20 C5.67 20.66 5.34 21.32 5 22 C5.66 22.33 6.32 22.66 7 23 C6.67 23.66 6.34 24.32 6 25 C5.01 24.67 4.02 24.34 3 24 C3.03480469 23.35933594 3.06960937 22.71867187 3.10546875 22.05859375 C3.28915056 16.18952249 2.85741676 12.16533029 0 7 C-0.66 6.67 -1.32 6.34 -2 6 C-2 8.64 -2 11.28 -2 14 C-3.9375 13.1875 -3.9375 13.1875 -6 12 C-6.33 11.01 -6.66 10.02 -7 9 C-6.34 9 -5.68 9 -5 9 C-4.690625 8.21625 -4.38125 7.4325 -4.0625 6.625 C-3 4 -3 4 -2 2 C-2.66 1.67 -3.32 1.34 -4 1 C-2 0 -2 0 0 0 Z " fill="#BDBDBD" transform="translate(48,11)"/>
<path d="M0 0 C1.21526559 4.25342958 1.03186174 8.09640224 0.4375 12.4375 C0.03064148 15.86189255 0.02588942 18.64473024 1 22 C1.66 22 2.32 22 3 22 C3 22.66 3 23.32 3 24 C4.65 24.33 6.3 24.66 8 25 C8 25.66 8 26.32 8 27 C8.66 27 9.32 27 10 27 C9.67 27.66 9.34 28.32 9 29 C6.5625 28.625 6.5625 28.625 4 28 C3.67 27.34 3.34 26.68 3 26 C2.67 26.99 2.34 27.98 2 29 C1.34 28.34 0.68 27.68 0 27 C-0.99 27 -1.98 27 -3 27 C-3 25.68 -3 24.36 -3 23 C-3.66 22.67 -4.32 22.34 -5 22 C-4.00804829 4.00804829 -4.00804829 4.00804829 0 0 Z M-4 18 C-3 21 -3 21 -3 21 Z " fill="#BEBEBD" transform="translate(24,12)"/>
<path d="M0 0 C0.99 0 1.98 0 3 0 C2.54824049 2.10821106 2.10485901 3.82305043 1 5.6875 C-0.37721962 8.87232037 -0.43314011 11.79652203 -0.625 15.25 C-0.69976563 16.51328125 -0.77453125 17.7765625 -0.8515625 19.078125 C-0.90054687 20.04234375 -0.94953125 21.0065625 -1 22 C-0.34 22 0.32 22 1 22 C1.33 22.99 1.66 23.98 2 25 C1.34 25.66 0.68 26.32 0 27 C-4.30949597 20.1317408 -5.05379268 14.04429855 -4 6 C-2.97754864 3.23189999 -2.1310035 2.1310035 0 0 Z " fill="#E0E0E0" transform="translate(20,12)"/>
<path d="M0 0 C0.66 0.33 1.32 0.66 2 1 C1.67 1.66 1.34 2.32 1 3 C1.66 3 2.32 3 3 3 C3 2.34 3 1.68 3 1 C7.24223102 0.6363802 9.58168085 1.4606772 13 4 C13 4.66 13 5.32 13 6 C12.35933594 5.96519531 11.71867187 5.93039063 11.05859375 5.89453125 C5.16635234 5.71012429 1.23335445 6.2695542 -4 9 C-4 8.01 -4 7.02 -4 6 C-3.34 6 -2.68 6 -2 6 C-2.33 5.01 -2.66 4.02 -3 3 C-2.01 2.01 -1.02 1.02 0 0 Z " fill="#D2D1D0" transform="translate(30,9)"/>
<path d="M0 0 C1.64826111 2.96687001 2.44271087 5.65626525 3 9 C3.66 9 4.32 9 5 9 C5.83790789 10.78953185 6.67019396 12.58169695 7.5 14.375 C7.9640625 15.37273438 8.428125 16.37046875 8.90625 17.3984375 C10 20 10 20 10 22 C7.51842779 21.63658984 6.33711787 21.45169387 4.8046875 19.3984375 C1.85709052 12.98307937 -0.35055424 7.186362 0 0 Z " fill="#EFEFEF" transform="translate(32,45)"/>
<path d="M0 0 C0.66 0 1.32 0 2 0 C2 1.98 2 3.96 2 6 C3.65 4.68 5.3 3.36 7 2 C6.67842796 4.97454134 6.37860258 6.59335278 4.3125 8.8125 C1.39975854 10.3082321 -0.76999584 10.22022756 -4 10 C-4 9.01 -4 8.02 -4 7 C-3.34 6.67 -2.68 6.34 -2 6 C-1.62690101 4.34178227 -1.29299023 2.67422986 -1 1 C-0.67 0.67 -0.34 0.34 0 0 Z " fill="#DFDFDF" transform="translate(32,19)"/>
<path d="M0 0 C1.45880109 0.14107747 2.91703551 0.28802415 4.375 0.4375 C5.59316406 0.55931641 5.59316406 0.55931641 6.8359375 0.68359375 C9 1 9 1 11 2 C11 2.66 11 3.32 11 4 C11.66 4 12.32 4 13 4 C12.67 4.66 12.34 5.32 12 6 C9.5625 5.625 9.5625 5.625 7 5 C6.67 4.34 6.34 3.68 6 3 C5.67 3.99 5.34 4.98 5 6 C4.34 5.34 3.68 4.68 3 4 C2.01 4 1.02 4 0 4 C0 2.68 0 1.36 0 0 Z " fill="#D2D1D0" transform="translate(21,35)"/>
<path d="M0 0 C1.5 1.1875 1.5 1.1875 3 3 C3.1875 5.6875 3.1875 5.6875 3 8 C3.66 8 4.32 8 5 8 C5.33 8.99 5.66 9.98 6 11 C5.34 11.66 4.68 12.32 4 13 C-0.59225513 4.738041 -0.59225513 4.738041 0 0 Z " fill="#E7E7E7" transform="translate(16,26)"/>
<path d="M0 0 C0.66 0.66 1.32 1.32 2 2 C1.96712417 4.72869407 1.43602229 7.2966618 1 10 C0.34 10 -0.32 10 -1 10 C-2.4783226 7.04335481 -2.06032783 4.25770263 -2 1 C-1.34 0.67 -0.68 0.34 0 0 Z " fill="#D9D9D8" transform="translate(18,18)"/>
<path d="M0 0 C1.0828125 0.37125 1.0828125 0.37125 2.1875 0.75 C1.1975 2.07 0.2075 3.39 -0.8125 4.75 C-1.1425 4.42 -1.4725 4.09 -1.8125 3.75 C-3.81208364 3.70919217 -5.81295254 3.70745644 -7.8125 3.75 C-3.50480769 -0.31153846 -3.50480769 -0.31153846 0 0 Z " fill="#D1D0CF" transform="translate(51.8125,35.25)"/>
<path d="M0 0 C0.86625 0.2784375 0.86625 0.2784375 1.75 0.5625 C4.20692525 1.04023546 5.64397534 0.75729364 8 0 C7.25 1.9375 7.25 1.9375 6 4 C3.875 4.75 3.875 4.75 2 5 C1.34 3.35 0.68 1.7 0 0 Z " fill="#ECECEC" transform="translate(36,5)"/>
<path d="M0 0 C0.66 1.32 1.32 2.64 2 4 C-1.75 7 -1.75 7 -4 7 C-4 5.68 -4 4.36 -4 3 C-2.68 2.67 -1.36 2.34 0 2 C0 1.34 0 0.68 0 0 Z " fill="#EDEDEC" transform="translate(50,37)"/>
<path d="M0 0 C1.98 0.99 1.98 0.99 4 2 C3.34 3.32 2.68 4.64 2 6 C2.66 6.33 3.32 6.66 4 7 C3.67 7.66 3.34 8.32 3 9 C2.01 8.67 1.02 8.34 0 8 C0 5.36 0 2.72 0 0 Z " fill="#B3B3B2" transform="translate(51,27)"/>
<path d="M0 0 C0.33 1.32 0.66 2.64 1 4 C1.66 4 2.32 4 3 4 C2.67 4.99 2.34 5.98 2 7 C1.34 7 0.68 7 0 7 C0 6.01 0 5.02 0 4 C-0.99 4 -1.98 4 -3 4 C-2.67 3.01 -2.34 2.02 -2 1 C-1.34 0.67 -0.68 0.34 0 0 Z " fill="#DCDCDB" transform="translate(43,9)"/>
<path d="M0 0 C2.125 0.9375 2.125 0.9375 4 2 C3.34 3.32 2.68 4.64 2 6 C0.35 6 -1.3 6 -3 6 C-2.01 5.01 -1.02 4.02 0 3 C-0.66 2.34 -1.32 1.68 -2 1 C-1.34 0.67 -0.68 0.34 0 0 Z " fill="#D3D4D3" transform="translate(54,64)"/>
<path d="M0 0 C1.9375 0.3125 1.9375 0.3125 4 1 C4.33 1.99 4.66 2.98 5 4 C4.01 5.485 4.01 5.485 3 7 C2.34 7 1.68 7 1 7 C1.66 5.35 2.32 3.7 3 2 C2.01 1.67 1.02 1.34 0 1 C0 0.67 0 0.34 0 0 Z " fill="#EFF0F0" transform="translate(55,64)"/>
<path d="M0 0 C1.32 0.33 2.64 0.66 4 1 C4 1.66 4 2.32 4 3 C4.66 3 5.32 3 6 3 C5.67 3.66 5.34 4.32 5 5 C3.35 4.67 1.7 4.34 0 4 C0 2.68 0 1.36 0 0 Z " fill="#C5C4C2" transform="translate(28,36)"/>
<path d="M0 0 C1.32 0.33 2.64 0.66 4 1 C3.67 1.99 3.34 2.98 3 4 C1.35 3.67 -0.3 3.34 -2 3 C-1.34 2.01 -0.68 1.02 0 0 Z " fill="#DBDBDB" transform="translate(39,29)"/>
</svg>
